<?xml version="1.0" encoding="utf-8"?>
<!-- Generator: Adobe Illustrator 21.0.2, SVG Export Plug-In . SVG Version: 6.00 Build 0)  -->
<svg version="1.1" id="Layer_1" xmlns="http://www.w3.org/2000/svg" xmlns:xlink="http://www.w3.org/1999/xlink" x="0px" y="0px"
	 viewBox="0 0 162.7 277.3" style="enable-background:new 0 0 162.7 277.3;" xml:space="preserve">
<style type="text/css">
	.st0{fill:#666666;}
</style>
<title>dogs</title>
<path class="st0" d="M113.2,274c-1.5-0.1-2.9-0.2-4.4-0.3c-1,0-2.1-0.4-3.1,0.1c-0.5,0.2-1.1,0-1.7,0c-0.7,0-1.5-0.1-2.2-0.1
	s-1.2,0.5-1.9,0.3c-1.2-0.2-2.4,0-3.6,0.4c-0.4,0.1-0.8,0.2-1.2,0.2c-0.8,0-1.7-0.4-2.4,0.1s-1.7-0.2-2.3,0.5
	c-0.1,0.1-0.5,0.1-0.7,0.1c-0.8-0.1-1.6,0-2.4,0.2c-0.9,0.1-1.8,0.1-2.7-0.1c-0.7-0.2-1.5-0.1-2.2,0.2c-0.2,0.1-0.7,0-1,0
	c-0.5,0.1-0.7-0.6-1.3-0.3c-0.5,0.1-1.1,0.2-1.7,0.1c-0.5,0-1,0-1.5-0.1c-0.9-0.2-1.7,0.5-2.6,0.3c-0.8-0.3-1.7-0.2-2.4,0.2
	c-0.3,0.2-0.8,0-1.2,0c-1,0-1.9-0.3-2.9,0.2c-0.3,0.2-0.8,0-1.2,0c-0.9,0-1.8-0.3-2.6,0.2c-0.3,0.2-0.8,0-1.2,0l-4.4-0.3
	c-0.3,0-0.8-0.2-1,0c-1.1,0.9-2-0.2-3-0.3c-0.6-0.4-1.3-0.7-2.1-0.6c-0.9-0.1-1.8-0.2-2.7-0.2s-1.6-0.3-2.4,0.2c-0.2,0.1-0.6,0-1,0
	c-1,0-2.1-0.4-3.1,0.2c-0.2,0.1-0.6,0-1,0c-0.8,0-1.6-0.3-2.4,0.2c-0.1,0.1-0.3,0-0.5,0c-0.8-0.1-1.6-0.1-2.4,0
	c-0.8,0.3-1.5,0-2.1,0.2c-1.2,0.3-2.4,0.4-3.6,0.2c-0.8-0.1-1.3,0.5-2.1,0.4c-0.7-0.2-1.5-0.2-2.2-0.1c-1.1,0.3-2.2,0.3-3.4,0.2
	c-0.7,0-1.4,0.6-2.1,0.3s-1.4,0.5-2.1,0.3c-0.7-0.2-1.3-0.2-2-0.1c-0.8,0.3-1.6,0.4-2.4,0.2c-0.3-0.1-0.6-0.3-0.8-0.5
	c-0.7-1.2-1.2-2.4-1.8-3.7c-0.3-0.9-0.4-1.9-0.5-2.8c0-0.3,0-0.6-0.1-1c-0.5-1.2-0.8-2.4-1.1-3.7c-0.2-0.7-0.6-1.3-0.8-2
	s0.1-1.3-0.4-1.9c0.2-0.8-0.3-1.4-0.5-2.1s-0.4-1.2-0.6-1.8c-0.5-2.5-1.2-5-1.9-7.4c-0.2-0.7,0-1.4-0.4-2.1
	c-0.4-0.6-0.6-1.3-0.6-2.1c-0.7-0.7,0-1.8-0.7-2.5c0.1-0.9-0.7-1.7-0.4-2.6c-0.5-1.1-0.2-2.2-0.3-3.4c-0.2-0.9-0.3-1.7-0.3-2.6
	c0.1-1,0.1-2,0.2-2.9s0.1-1.8,0.2-2.7c-0.1-0.7,0.1-1.5,0.5-2.1c0.2-0.2,0.1-0.6,0.2-0.9c0-0.5,0.1-1,0.2-1.4
	c0.3-0.7,0.6-1.3,0.9-1.9c0.2-0.5,0.5-1,0.8-1.5c1.2-2.2,3-3.9,5.2-5c0.7-0.4,1.3-0.9,2.1-1.2s1.4-0.4,2-0.7
	c0.7-0.3,1.4-0.4,2.1-0.4c1,0,2-0.5,3.1-0.2c0.7,0.2,1.5,0,2.1,0.4s1.5,0.1,2.1,0.7c0.1,0.1,0.3,0.1,0.4,0.1
	c0.1-0.1,0.1-0.3,0.1-0.4c-0.3-0.8-0.7-1.6-1-2.4c-0.4-1-0.8-2.1-1.3-3.1c-0.1-0.2-0.1-0.3-0.1-0.5c-0.4-1.9-0.9-3.9-1.5-5.8
	c0.1-1.6-0.5-3.1-1-4.7c-0.2-0.8,0.3-1.7-0.5-2.3c0.2-1.5-0.5-3-0.2-4.6c0.2-0.8,0.2-1.6-0.2-2.4c-0.2-0.3,0-0.8,0-1.2
	c0-1.1,0.4-2.3-0.2-3.4c0.1-0.7-0.2-1.5,0.4-2.1c0.1-0.1,0.2-0.3,0.2-0.4c-0.1-1,0.6-1.8,0.7-2.8c0.3-0.8,0.6-1.7,0.9-2.4
	c0.1-0.3,0.2-0.6,0.3-0.9c0-0.6,0.2-1.1,0.4-1.6c0.2-0.5,0.4-1.1,0.5-1.6c0.2-0.5,0.4-1,0.7-1.5c1.3-3.2,3-6.2,4.9-9.1
	c1-1.7,2.1-3.3,3.3-4.8c0.1-0.1,0.2-0.3,0.2-0.4c0.3-0.5,1.3-0.7,1.2-1.4c-0.1-0.5-0.7-0.9-1.1-1.3c-1.8-1.8-3-4.1-4.7-6
	c-1-2.2-2.4-4.2-2.9-6.6c-0.2-1.1-0.6-2.1-0.8-3.2c-0.1-1.1-0.3-2.2-0.7-3.3c0.2-1.5-0.4-3-0.2-4.6c0.3-2.6,0.4-5.2,0.6-7.9
	c-0.1-0.8,0.1-1.6,0.5-2.4c0.2-0.4,0.2-0.8,0.2-1.2c0.1-1.3,0.5-2.5,1-3.7c0.3-1,0.6-2,1-2.9c0.4-0.9,0.8-1.7,1.2-2.6
	c1-2.3,2.4-4.4,4-6.3c0.2-0.1,0.4-0.3,0.6-0.4c1.2-1,1.7-2.7,1.1-4.2c-0.2-0.7,0.1-1.4-0.4-2.1c-0.3-0.5-0.2-1.2-0.5-1.8
	c-0.2-0.7-0.4-1.4-0.5-2.1c-0.2-0.5-0.3-1.1-0.4-1.6c0-0.5-0.3-1.1-0.3-1.6c0-1.1-0.7-2-0.3-3.1c-0.5-0.9-0.2-2.1-0.7-3
	c-0.3-0.6,0.2-1.4-0.2-2.2s0-1.4-0.1-2.2c0.1-0.7,0-1.5-0.3-2.1c-0.3-0.5,0.1-1.3-0.1-1.9c-0.2-0.5-0.2-1.1-0.2-1.7
	c0.1-1.2,0.2-2.3,0.2-3.4c-0.2-1.1-0.2-2.2-0.2-3.4c0.2-1.1,0.2-2.3,0.3-3.4s0.1-2.3,0.2-3.4s0.2-2.5,0.3-3.7s0.2-2.3,0.2-3.4
	s0.2-2.3,0.3-3.4s0.2-2.3,0.3-3.4c0-0.6,0.2-1.1,0.5-1.6c0.2-0.6,0.3-1.3,0.3-1.9c0.1-0.6,0-1.3,0.5-1.9c0.1-0.2,0.2-0.4,0.2-0.7
	c0-0.8,0.1-1.6,0.3-2.4c0.3-0.7,0.5-1.5,0.6-2.3c0-0.2,0.1-0.5,0.2-0.7c0.4-1,0.8-2.1,1-3.2c0.3-1.2,0.8-2.4,1.4-3.5
	c0.3-0.6,0.3-1.3,0.8-1.8c0.2-0.2,0.2-0.6,0.2-0.9c0.1-0.6-0.4-1.2-1.1-1.3c-0.1,0-0.2,0-0.3,0c-1.7,0.3-3.2,1-4.7,1.9
	c-0.8,0.6-1.6,1.1-2.4,1.7c-0.6,0.6-1.4,1.1-2.2,1.5c-0.2,0.1-0.4,0.3-0.6,0.5c-0.8,1.4-2.2,2.4-3.2,3.6c-0.9,1.2-1.9,2.4-2.9,3.6
	c-0.5,0.5-0.2,1.3-0.9,1.7c-1.1,1.5-2.2,3-3.1,4.6c-1.3,2.4-2.6,4.8-4,7.2c-1.8,3.2-4,6.3-6.2,8S3,58.9,1.9,56.4
	c-0.8-1.8-1.2-3.8-1.4-5.8c0-0.7-0.5-1.3-0.4-2.1c0.2-0.7,0.1-1.5-0.3-2.1c-0.1-0.1,0-0.3,0-0.5c0.2-2.8,0.4-5.6,0.6-8.3
	c0.2-0.7,0.3-1.4,0.6-2.1c0.1-0.7,0-1.5,0.6-2.1c0.1-0.1,0.1-0.3,0.1-0.5c-0.1-1.6,0.8-3,0.9-4.5c0.5-1.1,0.9-2.2,1.2-3.4
	c0.4-1.1,0.9-2.2,1.4-3.3c0.1-0.2,0.3-0.4,0.3-0.6c0-0.7,0.3-1.3,0.8-1.8c-0.2-0.7,0.4-1.2,0.7-1.8c1.1-2.6,2.3-5.1,3.7-7.5
	c1.2-1.8,2.8-3.4,4.5-4.8C15.5,5.1,15.7,5,15.9,5c1.1,0,2.3,0.2,3.3,0.7c1.8,0.7,3.5,1.5,5.2,2.4c2.5,1.5,4.8,3.3,6.8,5.4
	c0.8,0.8,1.7,1.5,2.5,2.3s1,1.7,1.6,2.4c0.7,0.7,1.3,1.5,1.7,2.4c0.3,0.6,0.7,1.1,1.2,1.5c0.2,0.3,0.5,0.2,0.8-0.1
	c0.8-1.1,1.6-2.2,2.5-3.2c0.8-1,1.6-2,2.5-2.9c1.7-1.6,3.4-3,5.2-4.5c0.4-0.3,0.8-0.6,1.2-0.9c1.2-0.6,2.3-1.3,3.3-2.1
	c0.9-0.2,1.5-1,2.2-1.4c1.9-0.9,3.8-1.8,5.7-2.6c1.3-0.6,2.7-1.1,4-1.6c1.1-0.4,2.3-0.6,3.4-1.1c0.2-0.1,0.5-0.1,0.7-0.1
	c0.6,0.1,1.3,0,1.9-0.3C72.2,0.9,73,1.4,73.6,1c0.1,0,0.2-0.1,0.2-0.1c1.5,0.3,2.9-0.5,4.3-0.2c0.9,0.2,1.5-0.5,2.4-0.4
	c0.7,0.2,1.5,0.1,2.2-0.2C83,0,83.5,0,83.9,0.1c2.4,0.2,4.8,0.4,7.1,0.5c0.9,0,1.4,0.7,2.3,0.7c0.7-0.1,1.5,0.1,2.1,0.5
	c0.6,0.5,1.6,0,2.3,0.6c1.6,0.3,2.9,1.4,4.4,1.8s2.7,1.8,4.3,2c1,1.1,2.5,1.5,3.6,2.5c1.2,1,2.3,2,3.3,3.2c0.6,0.8,1.3,1.4,2.1,2
	c1,0.8,1.8,1.9,2.3,3.1c0.3,0.8,0.7,1.6,1.2,2.3c1,1.4,1.9,2.8,2.7,4.3c0.2,0.3,0.6,0.5,0.9,0.3c0,0,0.1,0,0.1-0.1
	c0.3-0.2,0.6-0.5,0.9-0.8c1.5-1.8,3.3-3.4,5.3-4.6c0.7-0.5,1.4-1.1,2.1-1.7c1.9-1.6,3.9-3,6-4.2c1-0.6,2-1.1,2.9-1.7
	c1.8-0.9,3.7-1.6,5.7-1.9c1.7-0.4,4.5,0.7,5.8,2c0.5,0.5,1,0.8,1.5,1.2c1.7,1.6,2.7,3.8,4,5.8c-0.2,1.1,1.1,1.8,0.9,2.9
	c0.5,0.6,0.8,1.2,1.1,1.9c0.3,0.8,0.7,1.5,0.9,2.2s-0.1,1.5,0.4,2.1c0.1,1.4,0.7,2.8,1,4.2c0.3,1.2,0.5,2.3,0.5,3.5
	c0,1.1,0.2,2.2,0.5,3.3c0.1,0.4,0.1,0.8,0.2,1.2c-0.2,0.7-0.1,1.5,0.2,2.2c0.1,0.2,0,0.6,0,1c0,0.9-0.3,1.8,0.2,2.6
	c0.2,0.3,0,0.8,0,1.2c-0.1,2-0.3,4.1-0.4,6.1c0.1,0.8-0.1,1.6-0.5,2.3c-0.2,0.3-0.1,0.9-0.2,1.4c0,0.4-0.1,0.8-0.3,1.2
	c-0.5,0.8-0.2,1.8-0.9,2.5c-0.2,0.2-0.4,0.5-0.8,0.4c-0.4,0-0.8-0.1-1.2-0.3c-1.7-0.7-3-2-3.9-3.6c-0.1-0.4-0.4-0.7-0.7-0.9
	c-0.7-0.3-1-0.9-1.4-1.3c-0.7-0.7-0.9-1.8-1.9-2.5c-0.7-0.6-1.4-1.3-2.1-2.1c-2.4-1.9-4.3-4.4-6.9-6c-0.3-0.2-0.6-0.5-0.9-0.9
	c-0.7-0.9-1.6-1.6-2.6-2.2c-2.5-1.7-5-3.5-7.4-5.4c-1.4-1-2.6-2.2-3.7-3.4c-0.8-0.9-1.5-1.7-2.3-2.5c-0.1-0.1-0.3-0.1-0.4,0
	c-0.1,0.1-0.2,0.3-0.2,0.4c0.4,1.5,0.8,2.9,1.3,4.3c0.2,0.5,0.2,0.9,0.2,1.4c-0.2,1-0.1,2,0.3,2.9c-0.2,0.8,0.3,1.4,0.3,2.1
	c-0.1,0.7,0,1.5,0.3,2.1c0,0,0,0.2,0,0.2c0.1,0.8-0.3,1.6,0.1,2.4s0,1.4,0.1,2.2s0.5,1.5,0.3,2.4c0.5,0.6,0.3,1.4,0.3,2.1
	c0,0.5,0.1,1,0.2,1.4c0.1,0.7,0.1,1.5,0.1,2.2c0,0.8-0.3,1.6,0.2,2.4c0.2,0.3,0,0.8,0,1.2c-0.4,5.4-0.8,10.8-1.2,16.2
	c0,0.6,0,1.2-0.4,1.6c-0.1,0.1-0.1,0.3-0.1,0.4c-0.1,1.1-0.2,2.3-0.3,3.4c-0.8,0.9-0.6,2-0.7,3s-0.8,1.6-0.7,2.6
	c0,0.7-0.2,1.4-0.6,2.1c-0.3,0.6,0,1.5-0.5,2.1c-0.1,0.1-0.1,0.1-0.1,0.2c0,0.7-0.1,1.5-0.3,2.2c-0.3,0.7-0.5,1.4-0.5,2.1
	c-0.1,0.7,0,1.5-0.6,2.1c-0.1,1.1-0.2,2.1-0.3,3.2c0,0.7-0.2,1.4-0.5,2.1c-0.4,0.7-0.3,1.7,0.4,2.2c1.1,1,1.6,2.4,2.8,3.3
	c1.2,1.7,2.3,3.5,3.2,5.4c0.2,0.4,0.3,0.9,0.5,1.4c0.3,0.7,0.9,1.4,0.8,2.2s0.5,1.4,0.4,2.1c0.1,0.6,0.2,1.3,0.3,1.9
	c0,0.6,0,1.1,0,1.7c0.6,2.5,0,5-0.1,7.5c0,0.6,0.1,1.3-0.5,1.9c0.5,1.1-0.6,1.9-0.4,2.9c0.2,0.8-0.6,1.3-0.6,2.1s0,1.3-0.5,1.8
	c-0.3,1.3-0.8,2.6-1.4,3.8c-0.1,0.3-0.2,0.6-0.4,0.9c-0.8,1.2-1.1,2.6-2,3.8c-0.3,0.5-0.8,0.8-1.2,1.2s-0.5,0.8-0.9,1.2
	c-1.3,1.4-2.5,3-3.9,4.3c-1,1-1.8,2.2-3,2.8c-0.7,0.4-1.4,0.9-2,1.4c-0.1,0-0.2,0.1-0.2,0.2c0,0.2-0.2,0.5-0.1,0.6
	c1.1,1.2,1.7,2.8,2.9,4c0.2,0.3,0.5,0.6,0.6,1c0.3,0.5,0.6,1.1,1,1.3c1,0.4,1.2,1.3,1.6,2c0.4,0.9,0.8,1.9,1.2,2.9
	c0.3,1,0.6,2,0.7,3c0.3,1.2,0.5,2.5,0.4,3.8c-0.1,0.6,0,1.3,0.2,1.9c0.1,0.7,0.1,1.5,0,2.2c0,1.1-0.4,2.2,0.2,3.4
	c0.2,0.5-0.1,1.1,0,1.7c0,0.9-0.4,1.8,0.2,2.6c0,0.8-0.1,1.6-0.1,2.5c0,0.6-0.3,1.3,0.2,1.9c0.1,0.1,0.1,0.3,0,0.5
	c-0.7,0.7-0.4,1.4-0.2,2.2c0.2,0.7,0.1,1.5-0.3,2.1c-0.2,0.5-0.3,1.1-0.3,1.6c-0.2,1.2,0.1,2.5-0.7,3.6c-0.1,0.2,0,0.5-0.1,0.7
	c-0.1,0.9,0.1,1.8-0.6,2.6c-0.1,0.1-0.1,0.5-0.1,0.7c0.1,0.8,0,1.6-0.3,2.4c-0.2,0.8-0.4,1.5-0.6,2.3c-0.3,0.7-0.5,1.5-0.6,2.3
	c-0.2,0.8-0.5,1.5-0.9,2.2c-0.1,0.1,0,0.3,0.1,0.4c0.1,0,0.2,0.1,0.2,0c0.3,0,0.6-0.1,0.9-0.2c1.1-0.9,2.5-1.1,3.7-1.7
	c0.2-0.1,0.5-0.2,0.7-0.1c0.9,0.1,1.8-0.1,2.6-0.5c0.1-0.1,0.3-0.2,0.4-0.2c0.9-0.1,1.8,0.3,2.6-0.4c0.8,0,1.6,0,2.4,0.2
	c0.8,0.2,1.7,0.5,2.5,0.9c1.1,0.6,2.1,1.2,3,1.9c0.9,0.7,1.6,1.6,2.1,2.6c1.1,1.7,1.7,3.6,2,5.6c0.1,0.4,0.7,0.9,0.2,1.3
	s0.1,0.9,0.1,1.3c-0.1,1.1-0.2,2.3-0.3,3.4c-0.1,0.8-0.6,1.4-0.6,2.3c0.1,0.8-0.1,1.7-0.6,2.3c0.2,1.1-0.6,2-0.8,3
	c-0.8,0.7-0.3,1.9-1.1,2.6c0.1,1-0.7,1.8-0.8,2.8c-0.9,0.7-0.2,2-1.1,2.6c0.2,1-0.8,1.8-0.7,2.8c0,0.2,0,0.3-0.1,0.5
	c-1.2,1.4-1.3,3.2-2.1,4.8s-1.4,3.2-2,4.8c-0.3,1-0.8,1.9-1.5,2.7c-0.8,1-1.4,2.2-1.8,3.4c-0.2,0.3-0.2,0.6-0.2,0.9
	c0.1,0.8-0.6,1.3-0.6,2c-0.1,0.6-0.4,1.2-0.8,1.7c-0.4,0.7-0.7,1.4-0.9,2.2c-0.2,0.7-0.6,1.2-1.4,1.1c-0.5-0.1-1,0-1.4,0.3
	c-0.9,0.4-1.9,0.6-2.8,0.4c-1.7-0.2-3.4-0.3-5.2-0.4L113.2,274z M22.1,184.7c0.1,1.4-0.4,3,0.1,4.7c0.1,0.7,0.1,1.5-0.1,2.2
	c-0.2,0.8,0.4,1.4,0.4,2.1c-0.1,0.6,0,1.3,0.1,1.9c0.1,0.6,0.3,1.2,0.5,1.8c0.2,0.6,0.1,1.2,0.3,1.9c0.4,1.3,0.7,2.6,1,3.9
	c0.4,1.6,0.8,3.2,1.3,4.8c0.4,1.2,0.9,2.4,1.3,3.6c0.4,1.3,0.9,2.6,1.5,3.8c0.4,0.9,0.7,1.8,1.7,2.2c0.4,0.2,0.6,0.6,0.5,1
	c-0.1,1,0,1.9,0.5,2.8c0.9,2.5,2.4,4.7,3.2,7.3c0.9,0.8,0.8,2,1.5,3c0.6,1,1.1,2,1.5,3c0.9,2.1,2.1,4.2,2.9,6.3
	c0.3,0.7,0.8,1.3,0.9,2c0.1,0.8,0.6,1.3,0.9,1.9c1,1.9,2,3.9,2.9,5.8c0.2,0.4,0.3,0.7,0.5,1.1c1.1,2.1,2.2,4.3,3.2,6.5
	c0.7,1.5,1.4,3,2.2,4.5c0.5,1,1.1,2,1.6,3c0.8,1.8,1.9,3.4,2.6,5.1c0.4,0.9,0.9,1.7,1.6,2.4c0.5,0.6,1,1.1,1.8,0.4
	c0.5,0,1,0.1,1.4,0.2c1.4,0.8,2.9,0.4,4.3,0.6c0.8-0.6,1.7-0.2,2.6-0.2c0.6,0,1.2,0.2,1.7,0c0.9-0.3,1.9-0.4,2.9-0.2
	c0.3,0,0.6-0.3,0.6-0.6c0-0.1,0-0.2-0.1-0.3c-0.3-0.9-0.4-1.9-0.2-2.9c0.1-1.2,0.2-2.5,0.2-3.7c-0.7-1.1-0.2-2.2-0.2-3.4
	c0-0.3,0.2-0.7,0-1c-0.6-1.4-0.1-2.7-0.2-4.1c0.1-0.4,0-0.8-0.1-1.2c-0.2-0.6-0.3-1.3-0.2-1.9c0.1-1.4,0.2-2.8,0.2-4.2
	c-0.6-1.1-0.2-2.2-0.2-3.4c0-0.2,0.1-0.5,0-0.7c-0.6-1-0.2-2.1-0.2-3.1c0-0.3,0.1-0.7,0-1c-0.5-0.9-0.2-1.8-0.2-2.6s0.1-1.8,0.1-2.7
	c-0.6-0.9-0.2-1.9-0.3-2.9c0.1-0.7,0-1.5-0.1-2.2c-0.1-0.8-0.2-1.6-0.1-2.4c0-0.1,0-0.2-0.1-0.2c-0.3-0.6-0.4-1.4-0.2-2.1
	c0.1-0.8-0.5-1.4-0.4-2.1c0.3-0.9,0.2-2-0.2-2.9c0.3-1.6-0.5-3.2-0.2-4.8c0.1-0.3-0.1-0.6-0.4-0.7c-0.1,0-0.2,0-0.4,0
	c-1.2,0.3-2.4,0.4-3.6,0.2l-8.1-0.6c-0.4,0-0.8-0.1-1.2-0.1s-0.5-0.4-0.5-0.7s0.2-0.7,0.5-0.7s0.5,0,0.7,0l2.9,0.2l2.7,0.2l2.9,0.2
	c0.9,0,1.8,0.1,2.7,0.2c1,0.2,1.9-0.4,2.9-0.3c1.2,0.1,2.5,0.2,3.7,0.2c0.3,0,0.7,0.1,1,0c0.7-0.3,1.4-0.4,2.2-0.2
	c1.6,0.1,3.1,0.2,4.7,0.3l3.4,0.2c1.1,0.2,2.3,0.2,3.3-0.1c0.1,0,0.3,0.1,0.4,0.2c0,0.2,0,0.5,0,0.7c-0.1,0.9-0.2,1-1,1
	c-2-0.1-3.9-0.3-5.9-0.4c-0.6-0.1-1.1,0-1.7,0.1c-0.8,0.3-1.6,0.2-2.3-0.2c-0.6-0.4-1.4-0.5-2.1-0.3c-0.9,0.2-1.8,0.3-2.7,0.2
	c-0.6,0-1.2-0.1-1.7-0.1c-0.2,0-0.3,0.1-0.3,0.3c-0.2,0.6,0,1.3-0.6,1.8c-0.1,0.1,0.3,0.4,0.3,0.6c-0.1,0.8-0.1,1.6,0.1,2.4
	c0.2,0.9,0.2,1.8,0.1,2.7c0,0.2-0.1,0.6,0,0.7c0.3,0.7,0.4,1.4,0.2,2.1c0,0.2-0.1,0.6,0,0.7c0.6,0.8,0.3,1.7,0.3,2.6
	c0,0.3-0.1,0.7,0,1c0.5,0.7,0.2,1.4,0.2,2.1c-0.2,0.8-0.2,1.6-0.1,2.4c0.5,1.7,0.1,3.4,0.1,5.1c0,0.2-0.1,0.5,0,0.7
	c0.5,0.8,0.2,1.6,0.2,2.4c0,0.5-0.2,1.1,0,1.5c0.4,0.7,0.5,1.6,0.2,2.4c-0.2,0.9,0.3,1.6,0.3,2.4c-0.1,1.8-0.4,3.5,0.1,5.3
	c0.1,0.8,0.1,1.6-0.1,2.4c0,0.9,0.1,1.8,0.3,2.6c0,0.9,0,1.8-0.2,2.7c-0.2,1,0.3,1.9,0.2,2.9s-0.1,1.8-0.1,2.7
	c0.6,0.9,0.1,1.9,0.3,2.9c0,0.3,0.2,0.4,0.5,0.4c0.8,0,1.6,0.1,2.5,0.2c0.5,0,1.1,0.2,1.5,0c1.2-0.5,2.4-0.2,3.6-0.1
	c0.7,0,1.3,0.1,2,0.1c0.3,0,0.8,0.1,1,0c0.7-0.5,1.5,0,2.1-0.4s1.4-0.2,2.2-0.2c0.4,0,0.8-0.3,1-0.7c0.1-0.1,0.1-0.3,0.1-0.5
	c0.4-1.1,0.9-2.2,1.3-3.3s0.6-2.5,1.6-3.5c0-1,0.9-1.7,1.2-2.6c0.5-1.4,1.2-2.6,1.6-4c0.5-1.4,1.2-2.8,1.9-4.1
	c0.1-0.1,0-0.4,0.1-0.5c0.6-0.6,0.4-1.5,0.8-2.2c0.5-0.7,0.9-1.5,1.3-2.3c0.2-0.7,0.6-1.3,0.9-2s0.8-1.4,1-2.2
	c0.5-1.4,1.2-2.8,2-4.1c0.7-1,1.3-2,1.6-3.2c0.9-1.2,1.6-2.6,2.2-4c0.3-0.6,1.1-1,1.2-1.8c0.1-0.7,0.4-1.4,0.8-2
	c0.5-0.7,0.1-1.7,0.8-2.2c0.5-1.8,1.4-3.4,2-5.1c0.4-1.1,0.9-2.2,1.3-3.4s1.1-1.9,1.2-3.1c0.6-0.5,0.4-1.2,0.6-1.8
	c0.3-0.5,0.5-1,0.5-1.6c-0.1-0.7,0.5-1.2,0.6-1.8c0.1-0.8,0.3-1.6,0.6-2.3c0.2-0.8,0.3-1.6,0.3-2.4c0-0.2,0-0.6,0.1-0.7
	c0.8-0.8,0.3-1.9,0.8-2.8s0.3-1.9,0.4-2.9c0.1-0.7,0.1-1.5,0.2-2.2c0-0.3,0-0.7,0.2-0.9c0.4-0.6,0.6-1.4,0.5-2.1
	c0.1-1,0.4-2.1-0.2-3.1c0.1-1.3,0.1-2.6,0.2-3.9c0-0.4,0.2-0.9,0-1.2c-0.3-0.8-0.4-1.6-0.2-2.4c0-1,0.1-2,0.2-3
	c-0.4-0.5-0.5-1.2-0.3-1.9c0-0.7-0.1-1.4-0.3-2.1c-0.1-0.5,0.1-1,0-1.5c-0.1-0.5-0.2-1.1-0.3-1.6c-0.1-0.5-0.2-1.1-0.3-1.6
	c-0.1-0.6-0.2-1.1-0.4-1.6c-0.8-1.9-1.8-3.8-3-5.5c-1.3-1.9-2.8-3.6-4.2-5.4c-0.7-0.8-1-0.8-1.9-0.3c-1.4,0.8-2.8,1.6-4.3,2.2
	c-3,1.1-6.1,1.9-9.2,2.4c-0.8,0-1.5,0.6-2.3,0.4c-0.7,0.7-1.6,0.1-2.3,0.5c-0.8,0.4-1.7,0.6-2.6,0.6c-0.8-0.1-1.5,0.6-2.4,0.3
	s-1.7,0.5-2.6,0.3c-1.4-0.2-2.9,0.6-4.3,0.2c-0.2,0-0.4,0.2-0.7,0.3c-0.7,0-1.4,0-2.2,0.2c-0.7,0.2-1.4,0.2-2.2,0.1
	c-0.7-0.1-1.5-0.1-2.2,0c-0.6,0.2-1.3,0.3-1.9,0.2l-14.5-1.1c-0.7,0.1-1.3-0.1-1.8-0.6c-1.2,0-2.1-0.9-3.3-0.8
	c-0.3,0-0.6-0.2-0.9-0.4c-0.6-0.3-1.3-0.6-2-0.8c-1-0.2-1.7-1.2-2.8-1.3c-0.1,0-0.3-0.2-0.4-0.3c-0.6-0.6-1.3-1-2-1.4
	c-2.1-1.1-4-2.4-5.7-4.1c-0.4-0.4-0.9-0.4-1.3-0.1c-0.5,0.4-1,0.8-1.4,1.3c-1.1,1.5-2.2,3-3.2,4.5s-1.7,3.1-2.7,4.6s-1.2,3-2.1,4.3
	c0,0.8-0.6,1.5-0.7,2.3s-0.6,1.3-0.7,2c-0.3,0.7-0.5,1.5-0.7,2.3c-0.8,0.7-0.3,1.9-1.1,2.6l-0.3,3.2
	C22.1,184.2,22.1,184.4,22.1,184.7z M125.4,68.3c0.2-2.3,0.3-4.6,0.5-6.9c0-0.4,0.2-0.9,0-1.2c-0.3-0.8-0.4-1.6-0.2-2.4
	c0.2-1.1,0.2-2.1,0.1-3.2c-0.2-1-0.3-2.1-0.2-3.1c0-0.2-0.2-0.4-0.2-0.7c0-1.1-0.5-2-0.4-3.1c0.1-0.8,0.1-1.6,0.1-2.5
	c-0.7-0.7,0-1.8-0.6-2.5c0-1.3-0.6-2.5-0.3-3.8c0.1-0.3,0.1-0.7,0-1c-0.5-1-0.3-2.1-0.7-3c-0.4-0.9-0.3-2-0.6-3
	c-0.3-1-0.2-2-0.7-2.8c-0.6-0.9-0.6-2-1.1-2.9c-0.4-0.7-0.8-1.4-1.2-2.1c-0.9-1.5-1.8-3-2.8-4.5c-1.1-1.9-2-3.9-3.7-5.4
	c-1.4-1.2-2.7-2.5-4.2-3.7c-0.5-0.4-1-0.8-1.5-1.2c-0.5-0.4-1-0.8-1.6-1.1c-1.2-0.8-2.5-1.5-3.8-2c-1.4-0.4-2.5-1.4-3.9-1.8
	C97.9,4.2,97.4,4.1,97,4s-0.9-0.7-1.6-0.6c-0.6-0.8-1.7-0.5-2.5-0.9c-0.8-0.3-1.7-0.4-2.6-0.4c-0.4-0.1-0.9,0-1.2-0.1
	c-1.4-0.9-3-0.5-4.5-0.7C84,1.3,83.5,1.4,83,1.5c-0.6,0-1.1,0-1.7-0.1c-1,0.8-2.3-0.1-3.3,0.7c-0.6-0.1-1.3-0.1-1.9,0.1
	c-0.5,0.2-1.1,0.3-1.7,0.2c-0.7-0.1-1.2,0.5-1.9,0.4s-1.3,0.5-1.9,0.3c-0.7,0-1.5,0.1-2.1,0.4c-1.5,0.3-2.9,0.8-4.3,1.4
	C63.1,5.5,62,6,60.7,6.3c-1.3,0.3-2.5,0.8-3.5,1.6C55.6,9,53.7,9.6,52.3,11c-0.8,0.3-1.6,0.9-2.2,1.5c-0.8,0.6-1.6,1.1-2.4,1.6
	c-0.4,0.3-0.8,0.6-1.1,1c-1.4,1.9-3.3,3.3-4.3,5.5c-0.9,1-1.6,2-2.2,3.2C39.7,24.5,39,25,39,25.9c0,0.2-0.3,0.5-0.5,0.8
	c-0.6,0.5-1,1.2-1.1,2c-0.1,0.6-0.7,1.1-0.6,1.8s-0.8,1.1-0.6,1.8c-0.8,1-0.8,2.4-1.6,3.5c-0.1,1.4-0.3,2.8-0.4,4.2
	c-0.1,0.6,0.1,1.3-0.2,1.7c-0.4,0.6-0.5,1.4-0.5,2.1c0,0.3,0,0.7-0.2,0.9c-0.4,0.5-0.5,1.2-0.5,1.9c-0.4,4.8-0.7,9.7-1.1,14.5
	c-0.1,0.8-0.1,1.6-0.1,2.5s0.3,1.5-0.2,2.2c0,0.1,0,0.2,0,0.2c0.6,1.2,0.2,2.4,0.2,3.6c-0.1,0.9-0.2,1.8-0.1,2.7
	c0.2,1.3,0.3,2.6,0.2,3.9c0,0.2,0,0.4,0,0.5c0.3,0.7,0.4,1.4,0.2,2.1c-0.1,1.3,0.5,2.5,0.3,3.8c0.6,0.8,0,1.8,0.4,2.6
	c0.3,0.6,0.1,1.1,0.2,1.7c0.2,0.6,0.3,1.2,0.3,1.9c0.1,0.5,0.2,0.9,0.3,1.4c0.1,0.5-0.1,1,0.3,1.4c0.1,1.5,1,2.9,0.8,4.5
	c0.6,0.9,0.2,2.1,0.7,3c0.2,0.2,0.3,0.4,0.5,0.2c0.6-0.6,1.3-0.9,1.7-1.8c0.1-0.3,0.4-0.5,0.7-0.6c0.9-0.4,1.7-1,2.3-1.7
	c1.9-1.6,4-2.8,6.2-3.7c2.8-1.3,5.8-2.3,8.9-2.8c0.9-0.1,1.7-0.3,2.5-0.7c0.9,0.2,1.7-0.6,2.6-0.4s1.7-0.5,2.6-0.4
	c0.3,0.1,0.8-0.3,1.1-0.3c0.6-0.1,1.1,0,1.7,0.1c0.7,0.2,1.2-0.4,1.9-0.3c1.4,0.1,2.8,0.2,4.2,0.3c0.2,0,0.5,0,0.7,0.2
	c0.6,0.4,1.4,0.6,2.1,0.5c2,0.2,4.1,0.3,6.1,0.5c0.4,0,0.8,0.1,1.2,0.2c1.5,0.7,3.2,0.4,4.8,0.6c1.6-0.7,3.2,0,4.8,0
	c1,0.8,2.2,0.5,3.3,0.7c0.3,0.1,0.7,0,1,0.1c0.6,0.4,1.3,0.6,2.1,0.6c0.8,0,1.4,0.8,2.3,0.7c0.7,0.7,1.9,0.4,2.6,1.1
	c0.7,0.1,1.4,0.4,2,0.9c0.6,0.5,1.5,0.3,1.9,0.9c1,0.2,2,0.6,2.8,1.4c2.2,1.7,4.6,3,6.4,5.1c0.7,0.4,1.3,0.9,1.8,1.6l0.2,0.2
	c0.1,0.1,0.6,0,0.6-0.2c0-1,0.2-1.9,0.5-2.9c0.3-0.7,0.4-1.4,0.5-2.1c0-0.8,0.8-1.4,0.7-2.3c-0.1-0.7,0.1-1.5,0.6-2.1
	c-0.1-1.1,0.9-1.9,0.7-3s0.6-2,0.7-3c0-1.1,0.2-2.3,0.7-3.3c0.4-0.7,0.2-1.5,0.6-2.3c0.2-0.9,0.3-1.8,0.3-2.7c0-0.4,0.1-0.8,0.2-1.2
	c0.3-0.5,0.5-1.1,0.4-1.6C125.1,72.9,125.2,70.6,125.4,68.3z M63.2,165.6L63.2,165.6l3.2,0.2c1,0,2,0.1,2.9,0.2
	c1.1,0.2,2.1-0.2,3.1-0.2c1,0.1,2.1,0,3.1-0.2c0.9-0.2,1.9,0.1,2.9-0.3c0.6-0.2,1.3,0.2,1.9-0.1c0.6-0.3,1.3-0.3,1.9-0.1
	c0.7,0.2,1.2-0.5,1.9-0.4c1.2,0.3,2.2-0.6,3.4-0.3c0.7-0.8,1.7-0.2,2.6-0.6c0.8-0.3,1.7-0.5,2.6-0.5c0.9,0,1.7-0.5,2.6-0.4
	c0.8,0,1.5-0.4,2.4-0.3c1.2-0.7,2.6-0.8,3.8-1.4c0.5-0.3,1-0.5,1.6-0.6c2.2-0.4,4-1.7,5.9-2.7c0.7-0.4,1.4-0.8,2.1-1.1
	c1.5-0.6,2.9-1.6,4-2.8c0.6-0.8,1.3-1.5,2-2.1c1.2-1,2.2-2.2,3.1-3.4c0.5-0.7,1.4-1.1,1.7-2s1.2-1.7,1.6-2.7
	c0.6-1.7,1.7-3.3,1.9-5.1c0.1-0.6,0.6-0.9,0.6-1.6c0-0.7,0.2-1.3,0.6-1.8c0.2-0.4,0.1-1,0.2-1.4c0.2-0.4,0.4-0.9,0.5-1.3
	c0.2-1.6,0.3-3.3,0.4-4.9c0.1-1.6,0.5-3.2-0.1-4.8c-0.1-0.4,0.1-1,0-1.5s-0.3-1.1-0.3-1.6c-0.2-1.5-0.5-3-1.1-4.4
	c-1.5-4.3-4.5-7.5-7.5-10.7c-2-1.5-3.6-3.4-5.6-5c-1.1-1-2.4-1.9-3.7-2.7c-0.8-0.4-1.5-0.9-2.2-1.4c-0.8-0.5-1.7-0.9-2.6-1.2
	c-1.7-0.8-3.4-1.8-5.4-2c-0.2,0-0.3-0.1-0.4-0.2c-0.6-0.6-1.5-0.2-2.1-0.5c-0.7-0.4-1.5-0.6-2.3-0.6l-2.4-0.2
	c-0.4,0-0.8-0.2-1.2-0.3c-0.9-0.4-1.9-0.5-2.8-0.2c-0.3,0.1-0.6,0.2-0.9,0.2c-1.8-0.3-3.8,0.1-5.5-0.8c-0.2-0.1-0.5-0.1-0.7-0.1
	c-0.8,0.1-1.5,0.4-2.2-0.1c-0.2-0.1-0.6,0-0.9,0.1s-0.6,0.3-0.9,0c-0.4-0.3-0.9-0.4-1.4-0.4l-10.1-0.8c-0.4-0.1-0.8-0.1-1.2,0
	c-1.1,0.3-2.2,0.4-3.3,0.6l-3.3,0.8l-3,0.8c-1,0.2-2,0.5-3,0.9c-0.9,0.5-2,0.6-2.9,1c-1.5,0.6-2.9,1.3-4.4,2
	c-1.2,0.7-2.3,1.5-3.4,2.4c-2.9,2.4-5.5,5.1-7.7,8.1c-1.6,2-2.9,4.2-3.9,6.6c-0.2,0.6-0.4,1.2-0.8,1.8c-0.7,0.9-0.7,2.1-1.2,3.1
	c-0.3,0.6-0.2,1.4-0.6,2.1c-0.2,0.8-0.3,1.6-0.3,2.4c-0.1,0.3-0.2,0.6-0.4,0.9c-0.1,0.3,0.1,0.5,0.1,0.8c-0.5,2.6-0.7,5.3-0.8,8
	c0.3,0.5,0.4,1.1,0.3,1.6c-0.2,0.9-0.1,1.8,0.3,2.6c-0.2,0.8,0.3,1.4,0.3,2.1c0.1,1.2,0.4,2.4,0.8,3.5c0.3,1.3,0.7,2.5,1.2,3.7
	c1.3,2.6,2.9,5,4.8,7.3c1.2,1.4,2.5,2.8,3.9,4c1.8,1.6,3.8,3,5.8,4.4c1.2,0.8,2.5,1.5,3.7,2.2s2.4,1,3.5,1.6c0.7,0.4,1.7,0,2.2,0.8
	l1.9,0.2c0.3,0,0.7,0,0.9,0.2c0.7,0.4,1.5,0.6,2.3,0.5C59.2,165.3,61.2,165.4,63.2,165.6z M5.9,231.6c0,1.3-0.6,3,0.1,4.7
	c0.1,0.1,0,0.3,0,0.5c-0.1,0.7-0.1,1.4,0,2.2c0.2,0.7,0.2,1.4,0.2,2.2c0,0.1,0,0.2,0,0.2c0.4,0.9,0.4,1.9,0.8,2.8s0,2,0.7,2.8
	c-0.2,0.8,0.4,1.5,0.5,2.4s0.8,1.4,0.7,2.2s0.5,1.5,0.4,2.4c0.7,0.6,0.2,1.6,0.5,2.3c1,2.4,1.3,4.9,2.2,7.3c0.3,1,0.5,2,0.8,3
	c0.3,1,0.6,2,0.8,3c0.2,1,0.9,1.9,0.9,3c0,0.5,0.2,0.9,0.6,1.2c0.5,0.2,0.7,0.7,0.6,1.1c0,0.2,0.2,0.4,0.4,0.5
	c0.5,0.1,0.9,0.3,1.3,0.5c0.5,0,0.9-0.1,1.4-0.3c0.9-0.3,1.9-0.4,2.9-0.3c0.5,0.1,1,0.1,1.5,0c1.2-0.5,2.4-0.2,3.6-0.2
	c0.5,0,1.1,0.2,1.5,0c0.8-0.3,1.6-0.4,2.4-0.2c1.4,0,2.7-0.5,4.1-0.3c0.1,0,0.3-0.2,0.4-0.2c0.6,0,1.3,0,1.9-0.1
	c0.6-0.2,1.2-0.3,1.9-0.3c1,0.1,2.1,0.1,3.2,0c1-0.1,2.1-0.1,3.2,0c0.2,0,0.3,0,0.5-0.1c0.6-0.5,1.3-0.2,1.9-0.2
	c1.6,0.1,3.3,0.2,4.9,0.3c0.6,0,1.3,0.4,1.6-0.1s-0.5-0.9-0.6-1.4c-0.5-1.3-1.1-2.5-1.8-3.7c-0.9-1.9-1.7-3.8-2.7-5.6
	c-0.5-0.9-1-1.9-1.4-2.8c-0.3-1.1-0.9-2.1-1.6-3c-0.2-0.2-0.3-0.4-0.3-0.6c-0.4-1.2-1-2.4-1.7-3.5c-0.5-1.8-1.6-3.3-2.3-5
	s-1.6-3.3-2.4-5c-0.6-1.5-1.3-2.9-2.1-4.4c-0.6-1.2-1.1-2.5-1.7-3.7s-1.3-2.6-1.9-3.9c-0.3-0.7-0.7-1.5-1-2.2
	c-0.6-1.3-1.4-2.5-2-3.9c-0.7-2-1.6-3.9-2.6-5.7c-0.3-0.7-0.6-1.5-1-2.1c-0.6-0.7-1.5-0.6-2.1-1.1c-0.6-0.5-1.4-0.8-2.3-0.7
	c-0.7,0-1.3-0.1-2-0.1c-0.6-0.1-1.3-0.1-1.9,0c-0.8,0.3-1.5,0.4-2.3,0.6c-2.8,1-5.4,2.7-7.4,4.9c-0.6,0.6-0.7,1.6-1.4,2.2
	c-0.1,0.1-0.1,0.3-0.1,0.5c-0.1,0.5-0.2,0.9-0.4,1.4c-0.3,0.6-0.1,1.4-0.4,1.9c-0.4,0.6-0.5,1.4-0.5,2.1C6,229.7,6,230.4,5.9,231.6
	L5.9,231.6z M113.3,272.5L113.3,272.5c1,0,2,0.1,2.9,0.2c1.2,0.1,2.4,0,3.6-0.4c0.6-0.1,1.1-0.2,1.6-0.4c0.8-0.3,0.5-1.1,0.9-1.6
	c0.2-0.3,0.3-0.5,0.5-0.8c0.4-0.5,0.7-1.1,1-1.7c0.5-1.3,1.2-2.6,1.9-3.9c0.6-1.1,1.4-2.2,2-3.3c0.6-1.1,1-2.5,1.7-3.7
	c0.6-1.1,1.1-2.3,1.5-3.5c0.6-1.6,1.1-3.3,1.8-4.9c0.3-0.5,0.5-1,0.6-1.5c0.1-0.8,0.4-1.6,0.7-2.3c0.2-0.4,0.4-0.9,0.6-1.3
	c0.2-1.1,0.6-2.2,1-3.2c0.5-1,0.8-2.1,1.1-3.2c0.7-0.6,0.3-1.6,0.6-2.3c0.4-0.8,0.6-1.7,0.6-2.6c0.1-1.6,0.1-3.1,0.4-4.7
	c0.2-1.2-0.5-2.4-0.3-3.6c-0.9-2.2-1.8-4.4-3.7-5.9c-1.2-1.1-2.7-1.9-4.3-2c-0.3,0-0.6-0.2-0.9-0.3s-0.5-0.2-0.7-0.1
	c-0.4,0.3-0.9,0.4-1.4,0.3c-0.9-0.1-1.8,0-2.6,0.3c-3.5,0.8-6.8,2.1-9.3,4.8c-0.4,0.4-0.7,0.9-0.8,1.5c-0.8,0.6-0.5,1.5-0.8,2.2
	c-0.8,1.4-1.4,2.9-1.7,4.5c-0.5,0.8-0.9,1.7-1.1,2.6c-0.3,0.9-1.1,1.6-1.2,2.6c0,0.3-0.3,0.5-0.5,0.8c-0.6,0.9-1.1,1.8-1.6,2.7
	c-0.5,0.8-0.9,1.7-1.3,2.6c-0.4,1-0.8,1.9-1.4,2.8c-0.5,1.2-1.2,2.2-1.8,3.4s-1.5,2.3-1.6,3.7c-0.9,0.9-0.9,2.3-1.8,3.1
	c-0.2,0.3-0.3,0.6-0.3,0.9c-0.1,0.9-0.9,1.5-0.8,2.5c0,0.4-0.5,0.8-0.7,1.2s-0.2,0.6-0.4,0.9c-0.3,0.7-0.7,1.4-0.9,2.2
	s-0.6,1.6-0.8,2.5s-1,1.6-1.3,2.6c-0.5,1.6-1.3,3.2-2,4.8c-0.2,0.6-0.8,1-0.8,1.7c0.6,0.6,1.4,0.3,2.1,0.4c1.4,0.2,2.7-0.5,4.1-0.3
	c0.8-0.6,1.8,0,2.6-0.4c1-0.5,1.9-0.1,2.9-0.1c0.6,0.1,1.3,0.1,1.9,0c0.5-0.2,0.9-0.2,1.4-0.2c0.4,0.1,0.8,0,1.2-0.1
	c0.6-0.4,0.8,0.3,1.3,0.3C110.4,272.2,111.8,272.4,113.3,272.5L113.3,272.5z M160.8,49.3L160.8,49.3c0.1-1.2,0.2-2.3,0.2-3.4
	c0.1-0.3,0-0.6-0.1-0.9c-0.2-0.5-0.3-1.1-0.2-1.7c0-0.4,0.2-0.9,0-1.2c-0.3-0.7-0.4-1.4-0.2-2.2c0.1-0.9,0-1.8-0.2-2.6
	c-0.2-0.7-0.3-1.4-0.3-2.1c0-1-0.1-1.9-0.4-2.8c-0.4-0.9,0-2-0.6-2.8c0-1.3-0.8-2.4-1-3.7s-1.1-2.2-1.1-3.4c-0.5-0.8-1-1.7-1.3-2.6
	c-0.4-1.1-1-2.2-1.6-3.2c-0.7-1-1.4-2-2.1-2.9c-0.6-0.7-1.4-1.4-2.2-1.9c-0.9-0.6-2-0.4-2.9-1.1c-0.1-0.1-0.3-0.1-0.5,0
	c-0.6,0.6-1.4,0.1-2.1,0.4s-1.5,0.6-2.2,0.9c-1.7,0.7-3.4,1.6-4.8,2.8c-0.5,0.4-1.1,0.7-1.7,0.9c-0.9,0.2-0.7,1.3-1.6,1.4
	c-0.7,0-0.9,0.6-1.4,0.9c-0.6,0.3-1.1,0.6-1.6,1c-1,0.9-2.1,1.8-3.4,2.4c-0.2,0.1-0.3,0.2-0.4,0.3c-0.4,1-1.3,1.4-2,2.1
	c-0.4,0.5-0.8,1-1.2,1.5c-0.2,0.2-0.2,0.6,0,0.8c0,0,0,0,0,0c0.8,1.1,1.6,2,2.6,2.9c0.9,0.7,1.7,1.5,2.4,2.4
	c1.3,1.7,3.2,2.8,4.7,4.2c1.3,0.5,2.2,1.6,3.4,2.3c1.1,0.8,2.2,1.6,3.2,2.6c1,0.8,2,1.6,3,2.3c1,0.7,1.8,1.9,3.1,2.3
	c0.1,0.1,0.3,0.2,0.4,0.3c1.4,1.8,3.4,3.1,4.8,4.9c0.3,0.5,0.7,0.9,1.2,1.3c0.7,0.5,1.5,0.9,1.7,1.7c0.2,1,1.5,1.1,1.6,2
	c0.8,0.8,1.3,1.9,2.4,2.4c0.9,0.5,0.8,0.5,1.4-0.5c0.3-0.6,0.5-1.4,0.6-2.1c0.1-0.5-0.1-1.1,0.2-1.4c0.4-0.7,0.6-1.5,0.5-2.3
	C160.8,50.8,160.8,50,160.8,49.3z M17.4,6.1c-0.2,0-0.4,0.1-0.6,0.2c-0.4,0.2-0.9,0.4-1.3,0.7c-1,0.6-1.8,1.4-2.5,2.3
	c-1.4,2.1-2.6,4.4-3.7,6.7c-0.3,0.7-0.6,1.5-1,2.2c-0.8,1.4-1.1,3-2.1,4.3c0,0.1,0,0.2,0,0.2c-0.2,1.6-1.3,2.9-1.5,4.5
	c-0.5,0.4-0.3,1.1-0.5,1.6c-0.3,0.6-0.4,1.2-0.6,1.8c0,1.6-1,2.9-0.9,4.5c-0.8,1.1-0.5,2.3-0.7,3.5c-0.1,1-0.2,2-0.2,2.9
	c-0.1,1-0.1,2-0.2,2.9c-0.2,0.9,0.4,1.9,0.2,2.9c-0.2,1.2,0.4,2.2,0.4,3.4S3,53,3,54.1c1.1,2.5,1.1,2.5,3,0.6
	c0.1-0.1,0.2-0.2,0.3-0.4c1.3-1.7,2.6-3.5,3.7-5.3c0.2-0.4,0.5-0.8,0.8-1.1c0.4-0.4,0.4-0.9,0.6-1.3s0.8-0.9,1-1.4
	c0.3-0.7,0.6-1.3,1-1.9c1.3-2.3,2.7-4.5,4.2-6.8c1.8-2.7,3.9-5.3,6.2-7.7c0.4-0.4,1.1-0.7,1.2-1.2c0.2-0.8,1.3-0.5,1.3-1.3
	c0.5-0.3,1-0.6,1.4-0.9c1.3-1.2,3.1-1.8,4.5-2.8c0.5-0.2,1-0.4,1.6-0.5l2.1-0.6c0.2-0.9-1-1.3-1-2.1l-1.9-2.2
	c-0.8,0-0.5-1.2-1.3-1.2c-0.5-0.5-1-1.1-1.5-1.7c-1.1-1.5-2.6-2.7-4.2-3.6c-0.2-0.1-0.3-0.1-0.4-0.2c-1.5-1.5-3.5-2.2-5.3-3.4
	c-0.8-0.5-1.8-0.3-2.5-0.9C17.7,6.1,17.6,6.1,17.4,6.1z"/>
<path class="st0" d="M96.2,81c-1.1,0.1-2.1-0.3-2.9-1c-0.6-0.4-1.1-0.9-1.6-1.4c-0.7-0.8-1.2-1.7-1.8-2.6c0-0.1-0.1-0.1-0.1-0.2
	c0.1-1-0.1-2.1,0.4-3.1c0.4-0.8,0.9-1.5,1.4-2.3c0.7-1.2,1.9-2,3.2-2.3c0.2-0.1,0.5,0,0.7-0.1c0.7-0.3,1.5-0.5,2.3-0.7
	c1,0,2,0,2.9,0.1c0.7,0.1,1.4,0.3,2,0.7c0.6,0.3,0.9,0.9,1.5,1.2s0.5,1.2,1,1.6s0.5,1.2,0.5,1.8c0.1,0.4,0.2,0.8,0.3,1.1
	c-0.8,0.7-0.3,1.9-1,2.7c-0.5,0.5-0.7,1.2-1.2,1.8c-1.3,1.5-3.2,2.3-5.1,2.4C97.9,80.7,97,81.6,96.2,81z"/>
<path class="st0" d="M59.7,75.3c-0.2,0.9,0,1.6-0.5,2.1c-0.2,1.1-0.9,2-1.8,2.5c-1.5,0.9-3.1,1.8-5,1.5c-0.9-0.2-1.7,0.4-2.6,0.3
	c-1,0-1.9-0.6-2.3-1.5c-0.6-1.2-1-2.5-1.5-3.8c-0.1-0.3-0.2-0.6-0.2-0.9c0-0.4,0.1-0.8,0.1-1.2c0-1.5,0.6-2.9,1.8-3.8
	c0.9-0.9,1.8-1.6,2.8-2.4c0.8-0.8,1.9-1.2,3-0.9c0.6,0.1,1-0.4,1.6-0.1c0.5,0.3,1,0.5,1.5,0.7c0.5,0.2,0.9,0.2,1.4,0.3
	c0.6,0,0.7,0.5,1,0.9c0.5,0.7,0.1,1.5,0.4,2.1c0.1,0.2,0.3,0.5,0.2,0.7C59.2,72.9,60.1,74.2,59.7,75.3z"/>
<path class="st0" d="M44.6,60l-0.5-0.1c-0.3-0.1-0.7-0.4-0.5-0.7c0.7-0.8,0.5-2,1.2-2.8c0.9-1,1.8-2.1,2.8-3c1.6-1.5,3.4-2.4,5-3.8
	c1.2-0.5,2.3-1.5,3.7-1.7c0.9-0.2,1.7-0.5,2.4-1c0.5-0.2,1.1-0.3,1.7-0.1c0.2,0,0.3,0.3,0.3,0.5c0.1,0.6-0.3,1.2-0.8,1.3
	c-0.3,0.1-0.7,0-1,0.1c-3,0.9-5.8,2.3-8.3,4.3c-1.6,1.2-3,2.6-4.2,4.1c-0.5,0.6-0.9,1.4-1,2.2C45.5,60,45.3,60.1,44.6,60z"/>
<path class="st0" d="M96.5,48.5l2.9,0.2c0.7,0.8,1.9,0.3,2.6,1.1c1.9,0.6,3.7,1.4,5.4,2.4c0.9,0.5,1.7,1.2,2.4,2
	c0.4,0.5,0.4,1.2-0.1,1.6c0,0-0.1,0.1-0.1,0.1c-0.1,0.2-0.3,0.4-0.6,0.1c-1.1-1.2-2.3-2.2-3.7-3.1c-0.5-0.5-1.2-0.8-1.9-0.9
	c-0.8-0.1-1.3-0.6-2-0.8s-1.6-0.9-2.4-1c-1.3-0.2-2.6-0.4-3.9-0.3c-1.1,0-2.2,0.5-3.3,0.2c-0.2,0-0.5-0.1-0.7-0.1
	c-0.1,0-0.3-0.2-0.3-0.3s0.1-0.6,0.3-0.6c0.8-0.3,1.7-0.6,2.5-0.8c0.5-0.1,1-0.1,1.5,0C95.5,48.3,96,48.4,96.5,48.5L96.5,48.5z"/>
<path class="st0" d="M76.1,95.8c0.7,0,1.3,0.1,2,0.2c0.4,0,0.8,0,1.2,0.2c0.9,0.7,2.2,0.2,3.2,1.1c0.8,0.7,1.8,1.1,2.5,1.8
	c0.9,1,1.6,2.2,2,3.6c0.1,0.4,0.2,0.8,0.3,1.2c0.2,0.4,0.1,0.8-0.2,1.2c-0.2,0.3-0.4,0.7-0.4,1.1c-0.2,1.8-1.1,3.4-2.4,4.6
	c-0.3,0.2-0.5,0.4-0.7,0.7c-0.4,0.7-1,1.3-1.7,1.7c-1.1,0.6-2.3,1.2-3.5,1.7c-0.7,0.2-1.4-0.1-2.1,0.4c-0.5,0.4-0.6,0.3-0.4,1
	c0,0.1,0.2,0.3,0.2,0.4c-0.4,1.6,0.4,3,0.2,4.6c-0.1,1,0.5,2,0.3,3.1c0,0.2,0.3,0.6,0.6,0.7c0.6,0.3,1.3,0.5,2,0.7
	c0.4,0.1,0.8,0.2,1.2,0.3c1.9,1.1,3.8,2.1,5.7,3c0.6,0.4,1.4,0.6,2.2,0.4c0.3-0.1,0.6,0.1,0.7,0.4c0,0,0,0.1,0,0.1
	c0,0.5,0,1-0.1,1.5c0,0.3-0.3,0.5-0.6,0.5c0,0-0.1,0-0.1,0c-0.4,0-0.8-0.1-1.2-0.3c-1-0.7-2.1-1.2-3.2-1.6c-0.1,0-0.3-0.2-0.4-0.3
	c-0.9-1-2.2-1.3-3.3-1.8c-0.6-0.3-1.2-0.5-1.8-0.6c-1.5-0.3-2.9-0.3-3.7,1.4c-0.3,0.6-0.9,0.9-1.4,1.3c-1,0.7-1.8,1.6-2.5,2.6
	c-0.1,0.2-0.3,0.3-0.5,0.5c-0.4,0.3-0.9,0.4-1.3,0.3c-0.4-0.5-0.4-1.1-0.2-1.6c0.2-0.3,0.5-0.6,0.8-0.9c1.7-1.2,2.8-3.1,4.5-4.4
	c0.4-0.3,0.6-0.7,0.8-1.2c0.1-0.3,0.3-0.8,0.2-0.9c-0.7-0.8,0-2-0.7-2.8c0-0.9,0-1.8,0.2-2.7c0.1-1.1-0.5-2-0.4-3.1
	c0-0.4-0.5-0.7-1.1-0.8c-0.8-0.1-1.5-0.5-2.3-0.6c-0.7-0.3-1.5-0.7-2.1-1.1c-1.5-0.7-2.7-1.9-3.5-3.3c-0.8-1.1-1.2-2.5-1.1-3.9
	c0.2-1.1,0.2-2.1,0.2-3.2c0-1,0.5-1.9,1.2-2.6c1.1-1,2.2-2,3.3-2.9c1.6-1,3.5-1.6,5.4-1.7C74.8,95.7,75.4,95.8,76.1,95.8L76.1,95.8z
	 M74.1,113.5c0.9,0.3,1.9-0.2,3-0.2c0.6,0,1.3-0.2,1.8-0.5c1.4-0.6,2.7-1.5,3.8-2.7c1.1-1.3,2.5-2.5,2.5-4.5c0-0.2,0.1-0.3,0.2-0.4
	c0.6-0.5,0.1-1,0-1.5c-0.3-1.2-1.1-2.1-1.6-3.2c-0.2-0.5-0.5-0.8-1-1c-1.1-0.2-1.9-1.3-3.1-1.3c-0.2,0-0.4-0.1-0.5,0
	c-0.5,0.5-0.8,0.2-1.2-0.1c-0.6-0.5-1.3-0.7-2-0.7c-0.5,0-1,0-1.5-0.1c-0.8-0.2-1.5,0.7-2.4,0.4c-0.2-0.1-0.5,0.1-0.7,0.2
	c-2.3,0.8-4.2,2.5-5.4,4.6c-0.1,0.2-0.3,0.4-0.4,0.6c-0.1,1.1-0.2,2.1-0.2,3.2c0.6,0.7,0.2,1.8,1,2.4c0.4,1.6,1.8,2.5,3,3.4
	C70.8,113,72.4,113.5,74.1,113.5L74.1,113.5z"/>
<path class="st0" d="M69.7,130.8c-1.7,0.7-2.8,2.1-4.4,2.9c-2.7,1.4-7.5-1.5-8.9-3.9c-0.3-0.5-0.9-0.6-1.4-0.3
	c-0.4,0.3-0.6,0.8-0.3,1.3c1.5,2.6,4.7,4.3,7.6,5.1c3.7,1,4.9-2,7.9-3.2C71.4,132.2,70.9,130.3,69.7,130.8L69.7,130.8z"/>
<path class="st0" d="M86.2,131.4c6.7,3.8,12-3,13.6-8.8c0.1-0.5-0.2-1.1-0.7-1.2c-0.5-0.1-1.1,0.2-1.2,0.7
	c-1.2,4.5-5.2,10.7-10.6,7.6c-0.5-0.3-1.1-0.1-1.3,0.4C85.6,130.6,85.8,131.2,86.2,131.4L86.2,131.4z"/>
</svg>
