<?xml version="1.0" encoding="utf-8"?>
<!-- Generator: Adobe Illustrator 21.0.2, SVG Export Plug-In . SVG Version: 6.00 Build 0)  -->
<svg version="1.1" id="Layer_1" xmlns="http://www.w3.org/2000/svg" xmlns:xlink="http://www.w3.org/1999/xlink" x="0px" y="0px"
	 viewBox="0 0 129.9 150.9" style="enable-background:new 0 0 129.9 150.9;" xml:space="preserve">
<style type="text/css">
	.st0{fill:#666666;}
</style>
<title>kitten</title>
<path class="st0" d="M72.3,150.5c-1.7,0-3.4,0-5.1,0c-0.8-0.1-1.6,0-2.3,0.3c-0.2,0.1-0.5,0-0.8,0c-3,0-6.1,0-9.1,0
	c-0.8,0.1-1.7,0-2.5-0.3c-0.4-0.1-0.9-0.1-1.4-0.1c-1.1,0-2.2,0-3.3-0.1c-0.8-0.2-1.6-0.3-2.5-0.4c-0.9,0.1-1.8,0.1-2.8,0
	c-0.8,0-1.7,0-2.6,0c-0.5,0.1-1.1,0-1.5-0.3c-0.2-0.1-0.5-0.1-0.8-0.1c-0.7,0-1.3,0-2,0s-1.5-0.2-2.1,0.3c-0.7-0.3-1.4-0.4-2.1-0.3
	c-0.7,0-1.5,0-2.2,0H28c-0.8,0-1.1-0.3-1.1-1s-0.5-1.3-0.6-2c-0.6-0.8-1.1-1.6-1.4-2.5c-0.2-0.4-0.5-0.8-0.8-1.1
	c0.2-1-0.7-1.5-0.9-2.3c-0.4-0.9-0.7-1.9-1-2.9c-0.2-1.3-0.9-2.4-0.9-3.7c-0.4-0.4-0.3-1-0.3-1.5c-0.2-0.5-0.3-1-0.3-1.5
	c0-0.8-0.5-1.3-0.4-2.1c0.1-0.7,0.1-1.4-0.1-2.2c-0.6-1.8-0.2-3.6-0.3-5.4c0.1-0.6,0.2-1.3,0.4-1.9c0.1-0.6,0-1.2,0.1-1.8
	c0.2-0.5,0.3-1.1,0.3-1.7c0-0.6,0.5-1.1,0.4-1.7c0-0.5,0-1.1,0-1.6c0-0.4,0.3-0.6,0.3-0.9c-0.1-0.8,0.5-1.4,0.4-2.1
	c0-0.7,0.4-1.2,0.4-1.9c0-0.4,0.2-0.9,0.4-1.3c0.7-2.4,1.3-4.8,2.2-7.2c0-0.1,0.1-0.1,0.1-0.2c-0.1-1.4,0.8-2.6,0.9-3.9
	c0.1-0.3,0.1-0.5,0.3-0.7c0.6-1.3,1-2.6,1.3-4c0.1-0.3,0.2-0.6,0.4-0.9c0.3-0.8,0.6-1.7,0.8-2.6c0.2-0.7,0.4-1.5,0.7-2.2
	c0.4-1.1,0.8-2.2,1.2-3.3c0.4-1,0.7-2.1,0.9-3.1c0.1-0.5,0.2-1,0.5-1.4c0.5-1.1,1-2.2,1.3-3.4c0.2-0.7,0.1-1.1-0.4-1.4
	c-0.8-0.6-1.8-1.1-2.7-1.5c-1.6-0.5-2.7-1.8-4.2-2.3c-1.7-1.7-3.9-2.9-5.5-4.7c-1.1-1-2-2.2-2.5-3.6c-0.1-0.3-0.5-0.6-0.7-1
	c-0.4-1-1.3-1.9-1.6-3s-1-2-1.4-3c-0.5-1.1-0.8-2.2-1-3.3c-0.1-0.4-0.2-0.7-0.3-1.1c-0.1-0.4,0-0.8-0.3-1.1c0,0-0.1-0.1-0.1-0.2
	c0.1-1.3-0.5-2.5-0.4-3.8c0.1-1.5,0-3,0-4.5c-0.1-0.6,0-1.3,0.3-1.9c0.1-0.2,0-0.5,0-0.8c0.1-1.1-0.1-2.2,0.4-3.3
	c0.2-0.3,0-0.8,0-1.2c0.1-0.9-0.2-1.8,0.4-2.7c0.1-0.1,0-0.4,0-0.6c0.1-0.7-0.1-1.4,0.3-2.1s-0.1-1.5,0.5-2c0-0.7,0.1-1.4,0.4-2.1
	c0.1-0.3,0-0.5-0.4-0.8c-2.3-1.6-4.3-3.6-5.9-5.8c-0.2-0.2-0.3-0.4-0.5-0.6c-1.7-1.5-2.9-3.4-4.5-5c-0.7-1.1-1.5-2-2.4-2.8
	C0.1,7.4-0.1,7.2,0.1,6.9s0.3-0.6,0.7-0.6c0.5,0.1,1-0.1,1.5-0.4c1.4,0.1,2.6-0.6,3.9-1c0.2,0,0.4-0.2,0.5-0.2c0.7,0,1.3-0.1,2,0
	s1-0.5,1.6-0.3S11.5,4,12.1,4c0.5,0.1,1.1,0,1.6-0.1c1.4-0.4,2.8-0.5,4.3-0.3c0.6,0,1.1-0.5,1.6-0.1c0.8-0.4,1.8-0.5,2.6-0.1
	c0,0,0.1,0.1,0.2,0C23.1,2.9,24,3.3,24.8,3c1-0.2,2-0.5,3-0.9C27.9,2.1,28,2,28.1,2c1.2,0.2,2.3-0.6,3.5-0.5C32.2,1,33.1,1.4,33.8,1
	s1.5,0,2.1-0.3c0.9-0.3,1.8-0.4,2.7-0.4c0.3,0,0.6-0.1,0.9-0.2C40.3,0,41,0,41.8,0.2c0.3,0.1,0.7,0.3,0.9,0.1C43.2,0,44,0,44.5,0.4
	l3.5,0.1c0.5,0,0.9,0.1,1.3,0.2c0.6,0.2,1.2,0.2,1.7,0c0.5-0.2,1-0.2,1.5-0.2h4.1c0.8,0.1,1.6,0,2.3-0.3c0.2-0.1,0.5,0,0.8,0h13.7
	c0.5-0.1,0.9,0,1.3,0.3c0.1,0,0.3,0,0.4,0c0.5-0.2,1-0.2,1.4,0c0.5,0.1,0.9,0.1,1.4,0c2.2,0,4.5,0,6.7,0c0.5-0.1,1.1,0,1.5,0.2
	c0.3,0.1,0.7,0.2,1,0.1c0.9,0.1,1.7,0.1,2.6,0c0.7-0.1,1.2,0.4,1.9,0.4c1-0.1,2.1,0,3.2,0c0.6,0,1.2-0.2,1.7,0.3
	c0.9,0.2,1.8,0.1,2.7-0.1c0.3-0.1,0.7-0.1,1-0.1c0.3,0,0.5,0.2,0.5,0.5c0.1,0.4,0,0.9-0.3,1.3C98.8,5.1,97,7.2,95,9.1
	c-1,0.9-1.9,1.8-2.8,2.8s-1.8,2.1-2.7,3.1c-0.2,0.3-0.4,0.5-0.5,0.8c-0.2,0.3-0.2,0.6,0,0.9c0.2,0.7,0.5,1.3,0.8,2
	c0.4,0.8,0.7,1.7,0.8,2.6c0,0.3,0.1,0.5,0.2,0.7c0.4,1,0.8,1.9,1.2,2.9c0.2,0.6,0.4,1.3,0.6,2c0,0.5,0,1,0.1,1.6
	c0.2,0.5,0.3,1,0.4,1.5c0,0.3,0.1,0.5,0.2,0.7c0.4,0.9,0.6,1.9,0.6,2.8c0.4,1.4,0.5,2.8,0.3,4.3c0.1,0.8,0,1.6-0.3,2.3
	c-0.1,0.2,0,0.5,0,0.8c0,0.5,0,0.9-0.1,1.4c-0.1,0.5-0.2,1-0.3,1.5c0,0.5-0.1,0.9-0.3,1.3c-0.1,0.4-0.2,0.9-0.3,1.3
	c0,0.1-0.2,0.2-0.2,0.3c0,1.6-0.9,2.9-1.3,4.4c-0.1,0.2-0.2,0.5-0.3,0.7c-0.6,0.9-1.1,1.9-1.7,2.8c-1.2,1.9-2.1,3.9-3.8,5.4
	c-0.3,0.3-0.5,0.6-0.7,1c-0.3,0.6-0.7,1.2-1.2,1.7c-1.1,1-2.2,2.1-3.3,3.2c-0.7,0.6-1.4,1.2-2.1,1.8c-0.5,0.4-0.5,0.8-0.1,1.4
	c0.1,0.1,0.2,0.2,0.2,0.3c1.3,2.7,3.3,4.8,4.7,7.3c1.6,1.8,2.6,3.9,4.3,5.6c0.9,1.5,2.2,2.5,3.1,4c0.9,1.5,1.8,2.7,2.8,4
	c1.1,1.6,2.1,3.3,2.9,5c0.7,1.2,0.9,2.6,1.4,3.8c0.2,0.6,0.4,1.2,0.6,1.8c0.2,0.6,0.4,1.2,0.6,1.8c0.1,0.4,0.1,0.9,0.1,1.4
	s0.3,0.7,0.3,1.1c0,0.7,0.1,1.4,0.4,2.1c0.1,0.2,0,0.5,0,0.8c0,3,0,6.1,0,9.1c0,0.6-0.5,1.1-0.4,1.7c0.1,0.6,0,1.2-0.2,1.7
	c-0.1,0.1-0.1,0.4-0.1,0.6c-0.1,0.8,0.2,1.6-0.4,2.3c0,0.7-0.2,1.4-0.4,2.1c-0.1,0.6-0.3,1.1-0.4,1.7c-0.2,0.5-0.3,1-0.4,1.5
	c0,0.4-0.4,0.6-0.4,1.1s0.1,0.4,0.4,0.3c1.1-0.3,2-0.9,2.8-1.6c1.2-1.2,2.3-2.5,3.2-3.9c0.8-1.3,1.8-2.5,2.6-3.9
	c1.1-2,1.6-4.3,2.4-6.5c0-1.3,0.9-2.4,0.9-3.7c0.5-0.5,0.1-1.2,0.5-1.7s0.1-1.1,0.3-1.5s0.1-1.2,0.3-1.7c0.4-0.9,0.1-1.8,0.5-2.7
	c0.2-0.8,0.3-1.7,0.3-2.5c0.1-0.4,0.4-0.8,0.4-1.3c-0.1-0.5,0-0.9,0.2-1.3c0.1-0.2,0.1-0.4,0.1-0.6c0-1.4,0.1-2.9,0.4-4.3
	c0.1-0.9,0.2-1.8,0.1-2.8c-0.1-0.5,0-1.1,0.3-1.5c0.1-0.2,0.1-0.5,0.1-0.8c0-1,0-2,0.1-3s-0.3-2.2,0.3-3.3c0-1,0-2,0-3
	c-0.1-1,0-2,0.3-2.9c-0.4-0.7,0.1-1.3,0.1-2c-0.1-1.4,0-2.8,0-4.1c0-0.8,0.2-1.7-0.3-2.5c0-2.3,0-4.6,0-6.9c0.6-0.7,0.3-1.5,0.4-2.3
	c0-0.8,0.1-1.6,0.3-2.3c0.1-0.6,0.2-1.2,0.1-1.8c0-0.8,0.2-1.6,0.6-2.2c0.5-0.9,1-1.7,1.6-2.4c0.6-0.5,1.3-0.9,2.1-1
	c0.8-0.3,1.7-0.2,2.5,0.2c0.8,0.1,1.6,0.4,2.3,0.9c0.7,0.4,1.3,1.1,1.7,1.9c0.9,1.1,1.7,2.3,2.4,3.6c0.7,1.4,1.3,2.8,1.7,4.3
	c0.2,0.6,0,1.3,0.4,1.9s0,1.2,0.4,1.7c0.1,0.2,0,0.5,0,0.8c0,0.6,0,1.2,0,1.8c0.5,0.5-0.1,0.9,0,1.4c0.1,0.5,0.2,1,0.3,1.5
	c0.1,1.1,0.1,2.2,0.1,3.3c0,2,0,3.9,0,5.9c0,0.5,0,1.1,0,1.6s-0.4,0.9-0.1,1.4c-0.4,0.4,0.4,0.8,0,1.2s-0.2,0.7-0.2,1.1s0,0.9,0,1.4
	c0,0.5-0.5,1-0.4,1.7c0.1,0.5,0.1,1,0,1.6c-0.5,1.5-0.2,3-0.3,4.5c0,0.6-0.1,1.3-0.3,1.9c-0.3,0.8,0.1,1.7-0.5,2.4
	c0.2,1.3-0.5,2.5-0.5,3.9c0,0.9-0.6,1.7-0.4,2.7c-0.4,0.4-0.3,1-0.4,1.5c-0.1,0.5-0.2,1-0.4,1.5c-0.1,0.5-0.3,1.1-0.4,1.7
	c-0.1,0.6-0.2,1.1-0.4,1.7c-0.2,0.5-0.4,1-0.3,1.5c0.1,0.5-0.1,1-0.5,1.4c-0.2,0.2-0.3,0.4-0.3,0.7c0.1,0.7-0.1,1.4-0.4,2.1
	c0,0.7-0.1,1.3-0.4,1.9c-0.2,0.7-0.4,1.4-0.7,2c-0.2,0.5-0.4,1.1-0.6,1.6c-0.3,0.9-0.6,1.7-1.1,2.5c-0.4,0.7-0.5,1.6-1.1,2.2
	c-0.8,1.7-1.7,3.3-2.7,4.9c-0.4,0.9-1,1.7-1.6,2.5c-0.4,0.5-0.7,0.9-1,1.4c-0.4,0.4-0.8,0.9-1.1,1.4c-0.2,0.5-0.6,0.9-1.1,1.1
	c-0.9,0.6-1.7,1.4-2.5,2.2c-1,0.9-2.1,1.8-3.2,2.5c-1.9,1.3-3.8,2.4-5.9,3.3c-1.2,0.6-2.5,1.1-3.8,1.4c-0.8,0.2-1.6,0.5-2.3,0.9
	c-1.6,0.5-3.2,1.1-4.6,1.9c-0.7,0.4-1.5,0-2,0.6c-0.9,0.1-1.8,0.2-2.7,0.4c-0.9,0.2-1.8,0.4-2.7,0.4c-0.8-0.1-1.7-0.1-2.6,0.1
	c-1.8,0.5-3.6,0.2-5.4,0.3C74.1,150.4,73.2,150.4,72.3,150.5L72.3,150.5z M75.7,148.9L75.7,148.9c1.7,0,3.4,0,5.1,0
	c1.1,0,1.4-0.5,1.3-1.5c0-0.4-0.1-0.8-0.3-1.1c0.3-0.4,0.4-0.8,0.3-1.3c0.1-0.8,0.1-1.6,0-2.4c-0.2-0.8-0.2-1.5-0.4-2.3
	c-0.1-0.6-0.4-1.1-0.7-1.6c-0.2-0.3-0.5-0.6-0.8-0.9c-0.5-0.7-1.2-1-2-1c-0.3,0-0.5-0.1-0.7-0.2c-1.1-0.3-2.2-0.2-3.3,0.1
	c-0.7,0.2-1.4,0.5-2,0.8c-0.2,0.1-0.4,0.1-0.5,0c-0.5-0.2-0.6-0.6-0.5-1.3c0-0.8,0.2-1.5,0.4-2.3c0.2-0.8-0.1-1.7,0.4-2.5l0.1-2.6
	c0-0.3-0.1-0.6,0-0.8c0.3-0.7,0.4-1.5,0.3-2.3c0-1.5,0-3,0-4.5c0-0.4-0.1-0.9,0.1-1.2c0.3-0.7,0.4-1.4,0.3-2.1
	c0-6.2,0-12.4,0.1-18.6c0-0.5-0.1-1,0.1-1.4c0.3-0.8,0.4-1.7,0.3-2.5c0-0.6,0-1.2,0-1.8c0-0.6,0-1.2,0-1.8c0-0.6,0-1.3,0-2
	c0-0.6,0-1.2,0-1.8c-0.1-0.6,0.3-1.1,0.2-1.7c0-0.3,0.2-0.6,0.5-0.7c0.2,0,0.4,0.1,0.5,0.2c0.2,0.1,0.3,0.3,0.3,0.5
	c0.1,0.5,0,1-0.1,1.5c-0.2,0.4,0.2,0.7-0.1,1c-0.3,0.3-0.1,0.9,0.2,1.3c0.1,0.1,0.1,0.3,0,0.4c-0.3,0.5-0.4,1-0.3,1.5
	c0,2.4,0,4.7-0.1,7.1c0,0.3,0,0.7-0.1,1c-0.3,1-0.3,2,0,3c0,0.2,0,0.4-0.1,0.5c-0.3,0.4-0.3,0.9,0,1.3c0.2,0.2-0.1,0.4-0.1,0.5
	c0.2,0.7-0.2,1.3-0.1,2c0,0.7,0,1.4,0,2.2c0,0.6,0,1.2,0,1.8c0,0.6,0.1,1.4-0.3,2.1c-0.1,0.2-0.1,0.5,0.1,0.7
	c0.3,0.4,0.3,0.9,0.3,1.3c0,1.1,0,2.2,0,3.4c0,0.3,0.1,0.7-0.1,1c-0.3,0.5-0.4,1.1-0.3,1.7c0,1.2,0,2.5-0.1,3.8c0,0.3,0.1,0.6,0,0.8
	c-0.5,0.7-0.3,1.5-0.3,2.3s0,1.8-0.1,2.8c-0.6,1.2-0.3,2.6-0.4,3.9c0,0.3,0.3,0.5,0.5,0.4c0.4-0.3,0.8-0.4,1.3-0.4
	c0.6,0.1,1-0.3,1.5-0.4c0.3,0,0.6-0.1,0.8,0c0.5,0.3,1.1,0.4,1.7,0.3c0.7,0,1.4,0.3,1.9,0.8c0.6,0.6,1.2,1.2,1.8,1.8
	c0.1,0.1,0.3,0.3,0.3,0.5c0.2,1.3,1,2.4,0.8,3.8c-0.1,0.6,0.1,1.2,0,1.8s0.4,1,0.1,1.6c-0.2,0.3,0.4,0.6,0.3,1.1s-0.2,0.7-0.3,1.1
	c0,0.1,0,0.1,0,0.2c0.1,0.1,0.2,0.3,0.4,0.4c0.2,0,0.4,0,0.6,0c0.6-0.2,1.2-0.3,1.9-0.4c0.2,0,0.3-0.3,0.5-0.3
	c0.7,0,1.2-0.5,1.9-0.5s0.9-0.3,1.1-0.9c0.8-2.3,1.7-4.6,2.7-6.8c0.5-1.2,1.3-2.4,1.3-3.8c1-2,1.1-4.2,1.9-6.2
	c0.5-1.5,0.9-2.9,1.2-4.5c0.3-0.8,0.5-1.8,0.5-2.7c0-0.2,0-0.4,0.1-0.6c0.3-0.6,0.4-1.3,0.3-1.9c-0.1-0.7,0.4-1.2,0.4-1.9s0-1.3,0-2
	s0-1.2,0-1.8c0-0.7,0-1.3,0.1-1.9c0.2-0.7-0.2-1.2-0.1-1.9c0-0.6,0-1.2,0-1.8c0-0.6-0.4-1.1,0-1.6c-0.5-0.9-0.2-1.9-0.7-2.8
	c0.1-0.6-0.5-1-0.4-1.7c0.1-0.7-0.5-1.1-0.4-1.7c-0.4-1.1-0.6-2.2-1-3.3c-0.9-2.1-2-4.2-3.3-6.1c-0.5-0.7-1-1.4-1.4-2.1
	s-1.2-1.4-1.7-2.2c-1.1-1.8-2.7-3.2-3.8-4.9c-0.5-0.8-1.3-1.4-1.8-2.3c-0.9-1.6-2.2-3.1-3.1-4.7c-1-1.6-2.1-3-2.9-4.6
	c-0.3-0.5-0.8-1-1.3-1.4c-0.2-0.1-0.5-0.2-0.7-0.1c-0.2,0-0.3,0.2-0.5,0.3c-1.6,0.9-3.1,2.2-4.9,2.6c-0.1,0-0.2,0.2-0.3,0.2
	c-0.7,0.4-1.3,0.7-2.1,1c-0.5,0.1-1,0.4-1.4,0.6c-0.4,0.2-0.9,0.4-1.4,0.6c-0.5,0.1-1,0.2-1.5,0.4c-0.6,0.3-1.3,0-1.8,0.6
	c-0.6,0-1.3,0.2-1.9,0.4c-0.8,0.1-1.5,0.2-2.3,0.4c-0.8,0.1-1.7,0.2-2.6,0.1c-0.4,0-0.8,0.4-1.2,0.1c-1.5,0.5-3,0.1-4.5,0.2
	C48,76.2,47,76.1,46,76.2c-0.7,0-1.4-0.1-2.1-0.3c-0.7-0.2-1.4-0.2-2.1-0.1c-0.1,0-0.1,0-0.2-0.1c-0.5-0.4-1.1-0.2-1.7-0.4
	c-0.5-0.3-1.1-0.5-1.6-0.6c-0.6-0.1-1.1-0.3-1.7-0.5c-2.6-0.8-1.9-0.7-3,1.5c0,1.1-0.8,1.9-0.9,3c-0.7,0.9-0.7,2.1-1.1,3.1
	c-0.4,1-0.6,2-0.9,2.9c-0.4,0.9-0.7,1.9-1,2.9c-0.4,1-0.7,2-0.9,3c-0.8,0.8-0.7,1.9-1,2.9c-0.1,0.6-0.4,1.1-0.6,1.6
	c-0.4,0.6-0.2,1.2-0.5,1.9c-0.4,0.9-0.7,1.9-0.9,2.9c-0.2,0.6-0.2,1.3-0.4,1.9c-0.2,0.7-0.4,1.3-0.7,2c-0.4,0.8-0.7,1.7-0.8,2.6
	c-0.1,0.7-0.2,1.4-0.5,2.1c-0.2,0.7-0.3,1.4-0.5,2c-0.2,0.6-0.3,1.3-0.2,1.9c0.1,0.8-0.6,1.3-0.4,2.1c0,0.5,0,1-0.3,1.5
	c-0.2,0.6-0.4,1.2-0.5,1.9c-0.1,0.7-0.1,1.3-0.1,2c0.1,0.5,0.1,1.1,0,1.6c-0.6,1.4-0.2,2.9-0.3,4.3c0,0.5,0.3,0.9,0.3,1.5
	c0,0.5,0.1,1,0.3,1.5c0.1,0.5,0.2,1,0.1,1.6c0,0.1,0,0.3,0.1,0.4c0.3,0.4,0.4,1,0.3,1.5c-0.1,0.6,0.4,1.1,0.4,1.7
	c-0.1,0.9,0.2,1.8,0.7,2.6c0.1,0.2,0.2,0.4,0.2,0.6c0,0.5,0.5,0.9,0.4,1.5c0.3,0.4,0.5,0.9,0.4,1.5c0,0.2,0.2,0.3,0.3,0.5
	c0.2,0.4,0.5,0.8,0.7,1.2c0.9,1.7,1.8,3.4,2.6,5.2c0.4,1.2,1.6,1.9,2.9,1.8c0.5,0,1,0,1.6,0h3.8c0.5,0,0.9,0,1.4,0.1
	c0.3,0.5,0.8-0.1,1.2,0.2s0.8-0.1,0.7-0.8c-0.1-0.4,0-0.8-0.1-1.2c-0.1-0.4-0.3-0.9-0.3-1.3c-0.1-0.9,0-1.7,0-2.6
	c0-0.3,0.1-0.5,0.2-0.7c0.2-0.4,0.5-0.7,0.5-1c0.1-0.7,0.5-1.3,1-1.6c0.3-0.3,0.6-0.6,0.8-0.8c0.2-0.2,0.4-0.3,0.7-0.4
	c1.2-0.3,2.3-1,3.6-0.8c0.4,0.1,0.7-0.3,1.1-0.4c0.4-0.1,0.5-0.4,0.5-0.7c0-0.5-0.1-1-0.3-1.5c-0.2-0.3-0.3-0.7-0.3-1.1
	c0-0.3,0.1-0.5,0-0.9c-0.1-0.3-0.1-0.7-0.1-1c-0.1-0.4,0.1-0.9-0.3-1.3c0-0.8-0.5-1.5-0.5-2.2c0-1.1-0.6-2.1-0.5-3.3
	c-0.5-0.6-0.2-1.3-0.4-1.9c-0.2-0.5-0.4-1.1-0.3-1.7c0.1-0.7-0.5-1.2-0.4-1.9s-0.4-1.2-0.4-1.9s0-1.4,0-2.2c0-0.2-0.2-0.5-0.2-0.7
	c-0.1-1-0.5-2-0.5-3c0-0.6-0.1-1.3-0.3-1.9c-0.2-0.7-0.3-1.5-0.4-2.3c-0.1-0.9-0.2-1.8-0.4-2.7c-0.1-0.5-0.1-1-0.1-1.6
	c-0.7-0.8-0.1-1.8-0.7-2.6c-0.1-0.9-0.1-1.8,0-2.8c0.1-0.8-0.4-1.4-0.4-2.1c0-0.7,0-1.6-0.1-2.4c0-0.1-0.1-0.2-0.1-0.4
	c-0.2-0.8-0.3-1.7-0.2-2.5c0-0.1,0.2-0.2,0.3-0.2c0.5-0.2,1,0.1,1.2,0.6c0,0,0,0.1,0,0.1c0.1,0.9,0.1,1.8,0,2.8
	c-0.1,0.9,0.4,1.8,0.4,2.7c-0.1,1.2,0,2.4,0.3,3.5c0.2,0.5,0,1.2,0.1,1.8c0.2,0.6,0.3,1.3,0.3,1.9c0,0.6,0.2,1.3,0.4,1.9
	c0.1,0.5,0.1,1.1,0,1.6c0,0.5,0.4,0.9,0.4,1.5c0.1,0.8,0.2,1.7,0.4,2.5c0.2,0.8,0.3,1.6,0.3,2.5c0,0.1,0,0.3,0.1,0.4
	c0.3,0.4,0.3,0.9,0.2,1.3c-0.1,1.4,0.5,2.8,0.5,4.2c0,0.1,0,0.3,0.1,0.4c0.1,0.6,0.3,1.1,0.5,1.7c0.2,0.6,0.2,1.2,0.1,1.7
	c-0.1,0.6,0.5,1.1,0.4,1.7c0,1,0.2,1.9,0.6,2.8c0.1,0.2,0.2,0.5,0.2,0.7c0,0.6,0.1,1.3,0.3,1.9c0.3,0.6,0,1.4,0.5,2.1
	c-0.1,0.9,0.4,1.8,0.4,2.7c-0.1,0.7,0.1,1.5,0.7,2c0.1,0.1,0.1,0.4,0,0.5c-0.2,0.3-0.4,0.5-0.7,0.7c-0.2,0.2-0.5,0.2-0.7,0
	c0,0,0,0,0,0c-0.2-0.2-0.4-0.3-0.7-0.1c-0.4,0.3-0.9,0.4-1.3,0.2c-0.9-0.1-1.6,0.6-2.5,0.5c-0.2,0-0.3,0.2-0.5,0.3
	c-0.5,0.5-0.9,0.9-1.4,1.4c-0.6,0.6-0.8,1.3-0.8,2.1c0,1.1,0.1,2.2,0,3.4c0,0.7,0.5,1.2,0.5,1.9c0,0.1,0.2,0.3,0.4,0.4
	c0.3,0.2,0.7,0.4,1.1,0.4c0.5,0,0.9,0,1.4,0c1.5,0.1,3.1-0.3,4.7,0.4c0.2,0.1,0.5,0,0.8,0c0.3,0,0.7-0.1,0.9-0.3
	c0.3,0.2,0.7,0.3,1.1,0.3c0.5,0,1.1,0,1.6,0c0.5,0,1.1,0,1.6,0c0.5-0.1,1,0.4,1.4,0.2c0.6-0.4,1,0.3,1.5,0.2c0.2,0,0.4,0,0.6,0
	c0.4-0.1,0.7-0.4,0.7-0.8c0-1.1,0-2.1-0.1-3.2c-0.7-1.1-0.2-2.3-0.5-3.4c-0.3-1.1-0.3-2.3-0.2-3.5c0-0.4,0-0.8,0-1.2
	c0-0.3,0-0.5-0.1-0.8c-0.2-0.5-0.3-1-0.2-1.5c0-2.2,0-4.5-0.1-6.7c0.1-0.4,0-0.8-0.1-1.2c-0.3-0.6-0.4-1.3-0.3-1.9
	c0-1.6,0-3.2-0.1-4.7c0-0.3,0.1-0.6,0-0.8c-0.4-0.8-0.5-1.6-0.3-2.5c-0.1-2,0-3.9,0-5.9c0.1-0.3,0.1-0.7,0-1
	c-0.5-1.1-0.3-2.3-0.4-3.5c0-0.3,0.1-0.7,0-1c-0.3-0.8-0.4-1.6-0.3-2.5c-0.1-1.1,0-2.1-0.1-3.2c0-0.3,0.1-0.6-0.1-0.8
	c-0.3-0.5-0.4-1.1-0.3-1.7c0-2.8,0-5.5,0-8.3c0.1-0.8,0.2-1.5,0.5-2.2c0-0.1,0.2-0.1,0.3-0.1c0.1,0,0.1,0,0.2,0.1
	c0.1,0.5,0.1,1,0.1,1.5c0.1,1.6,0,3.3,0,4.9c-0.3,0.4-0.3,0.9,0,1.2c0.2,0.3,0.1,0.7-0.1,0.9c-0.3,0.4-0.3,0.9,0,1.3
	c0.1,0.1,0.2,0.3,0.1,0.4c-0.3,0.4,0,0.8,0,1.2s0,1.1,0,1.6c0,0.7,0,1.4,0,2.2c0,0.8,0,1.6,0.2,2.3c0.2,0.7,0.2,1.4,0.2,2.1
	c0,0.1,0,0.3,0,0.4c0.3,0.9,0.5,1.8,0.3,2.7c0,2.2,0,4.5,0.1,6.7c0,0.3-0.1,0.7,0,1c0.3,0.7,0.4,1.5,0.3,2.3c0,1.5,0,3,0,4.5
	c0,0.4,0,0.8,0.1,1.1c0.2,0.5,0.3,1,0.2,1.5c0,2.4,0,4.9,0.1,7.3c-0.1,0.3,0,0.7,0.1,1c0.2,0.4,0.4,0.8,0,1.2c0.4,0.4,0.3,1,0.3,1.5
	c0,0.9,0,1.8,0,2.8c0,0.3,0,0.7,0.1,1c0.4,0.7,0,1.5,0.3,2.1c0.3,0.7,0.4,1.5,0.3,2.3c0,0.4,0,0.8,0,1.2c0.1,0.4,0.2,0.7,0.3,1.1
	c0.2,0.6,0.2,0.6,0.8,0.6h7.9c0.2,0,0.4,0.1,0.6,0c0.7-0.5,1.4-0.3,2.1-0.3C72.8,148.9,74.2,148.9,75.7,148.9z M50.3,75L50.3,75
	c0.6,0,1.2,0,1.8,0c0.3,0.1,0.7,0,1-0.1c0.5-0.2,1-0.3,1.5-0.3c1.2,0.1,2.3-0.1,3.5-0.4c0.5-0.2,1.1,0,1.7-0.3s1.2,0,1.7-0.5
	c0.7,0,1.4-0.2,2-0.6c0.3-0.1,0.6-0.2,0.9-0.2c0.8-0.3,1.6-0.5,2.4-0.6c1.2-0.2,2.1-1.3,3.3-1.5c1.9-1.2,3.9-2.3,5.9-3.4
	c0.2-0.1,0.4-0.2,0.5-0.2c1.3-1.1,2.7-2.1,3.9-3.2c1.7-1.4,3-3.3,4.5-4.9c0,0,0.1-0.1,0.1-0.2l2.4-3.5c1.3-1.8,2.3-3.9,2.9-6.1
	c0.4-0.9,0.7-1.8,0.7-2.8c0.1-0.4,0.2-0.9,0.3-1.3c0.1-0.4-0.1-0.9,0.3-1.3c0.1-0.9,0.4-1.8,0.4-2.7c0.1-2.3,0-4.6,0-6.9
	c0-0.3,0-0.5-0.1-0.8c-0.4-0.7-0.2-1.5-0.7-2.2c0.2-0.9-0.4-1.6-0.4-2.5c0-0.5-0.3-0.7-0.4-1.1c0-0.5,0-0.9-0.1-1.3
	c-0.4-0.7-0.2-1.6-0.7-2.2s-0.2-1.6-0.7-2.2c-0.2-1.4-1.2-2.4-1.3-3.8c0-0.2-0.2-0.3-0.3-0.5c-0.5-0.5-0.6-1.4-0.1-1.9
	c0.5-0.9,1.1-1.7,1.8-2.5c0.8-0.6,1.4-1.4,1.9-2.2c0.9-0.3,1.2-1.3,2-1.8c0.9-1.3,2-2.4,3.2-3.5c0,0,0.1-0.1,0.1-0.1s0-0.3,0-0.3
	c-0.1,0-0.2,0-0.4,0c-2.7,1.2-5.1,2.9-7.7,4.1c-0.1,0-0.2,0.2-0.3,0.2c-1,0.6-1.9,1.3-2.9,2s-2.1,1.1-2.9,1.9
	c-0.1,0.1-0.2,0.1-0.4,0.1c-0.3,0.1-0.6-0.1-0.7-0.4c0,0,0-0.1,0-0.1c-0.1-0.7,0-0.8,0.7-1.1c0.2-0.1,0.4-0.2,0.5-0.2
	c2.2-1.5,4.5-2.8,6.9-4c1.5-0.9,3.1-1.8,4.8-2.6c0.6-0.7,1.6-0.9,2.3-1.5c0.1-0.1,0.1-0.2,0.1-0.3c0,0-0.1-0.1-0.2-0.1
	c-0.5,0.1-0.9-0.3-1.3-0.4c-0.5,0-1.1,0-1.6,0c-0.7,0.1-1.3,0.1-2-0.1c-1.3-0.5-2.6-0.3-3.9-0.4c-0.5,0-1,0.1-1.4,0
	c-1.1-0.3-2.2-0.5-3.3-0.4c-1,0-2,0-3,0c-0.3,0-0.7,0.1-1-0.1c-0.6-0.3-1.3-0.4-1.9-0.3c-1.6,0-3.2,0-4.7,0H59.7
	c-0.4,0-0.8,0-1.2,0.1c-0.4,0.2-0.9,0.3-1.3,0.2c-3,0-6.1,0-9.1,0c-0.8,0-1.7-0.1-2.6-0.1c-0.3-0.4-0.7,0-1-0.1s-0.8,0-1.2-0.1
	c-0.4-0.1-0.8-0.1-1.2,0c-0.3-0.1-0.5-0.1-0.8,0c-1,0.5-2.1,0.2-3.1,0.3c-0.5,0-1-0.1-1.4,0.1c-0.7,0.3-1.4,0.4-2.1,0.3
	c-0.4,0-0.8,0-1.2,0.1c-1.5,0.5-3,0.6-4.5,1c-0.5,0.2-1,0.3-1.5,0.4c-0.7,0-1.3,0.2-1.8,0.5c-0.8,0.5-1.7,0-2.4,0.7
	c-0.1,0-0.1,0-0.2,0c-0.8-0.4-1.8-0.5-2.7-0.3c-1.2-0.2-2.5-0.1-3.7,0.3c-0.2,0.1-0.4,0-0.6-0.1c-0.2-0.1-0.5-0.2-0.7-0.1
	c-0.5,0.1-1,0.2-1.5,0.2c-0.6,0-1,0.5-1.7,0.4c-0.7-0.1-1.4,0-2.1,0.2C9.5,5.9,8.8,6,8,6C7.9,6,7.7,6,7.6,6c-1,0.3-2,0.6-3,0.7
	c-0.1,0-0.2,0.3-0.3,0.4s0.1,0.2,0.2,0.3c0.5,0.2,1,0.3,1.5,0.4C7,8,7.9,8.2,8.7,8.5c0.2,0.1,0.5,0.2,0.7,0.2c1,0.1,1.9,0.4,2.8,0.8
	c0.8,0.3,1.7,0.7,2.4,1.2c2.4,0.8,4.7,1.8,7.1,2.4c0.2,0,0.3,0.1,0.2,0.4c-0.1,0.1-0.1,0.2-0.2,0.4c-0.3,1-0.3,1-1.3,0.6
	c-0.7-0.5-1.5-0.8-2.3-0.9c-1.6-0.7-3.4-1.2-5-2c-2.8-1.2-5.8-2.2-8.8-2.8C4,8.6,3.6,8.5,3.2,8.4C3,9,3.6,9.2,3.8,9.6
	c0.4,0.7,0.9,1.3,1.5,1.8c1.8,1.7,3.2,3.8,5,5.5c0.1,0,0.1,0.1,0.1,0.1c0.3,0.8,1,1.4,1.8,1.7c0.4,0.7,1.1,1.3,1.8,1.6
	c0.5,0.3,0.8,0.7,1.3,0.9s0.5,0.6,0.4,1c-0.1,0.2-0.1,0.5-0.2,0.7c-0.2,0.5-0.4,1.1-0.5,1.7c-0.2,0.6-0.3,1.2-0.4,1.9
	c-0.1,0.6-0.2,1.1-0.4,1.7c-0.1,0.6-0.1,1.2,0,1.8c0.1,0.7-0.4,1.2-0.4,1.9c0,0.6,0,1.2,0,1.8c0.1,0.7-0.4,1.2-0.4,1.9
	c0.1,1.4,0,2.7-0.4,4.1c0.1,1.7-0.3,3.4,0.3,5c0.1,0.4,0.1,0.9,0.1,1.4c0,0.5,0.4,0.9,0.4,1.5c0.1,0.8,0.3,1.6,0.5,2.4
	c0.2,0.7,0.4,1.3,0.6,2c0.5,1.4,1.2,2.7,1.6,4.1c0,0.1,0,0.1,0.1,0.2c0.9,1.5,1.8,3,2.8,4.5c0.4,0.6,0.8,1.2,1.3,1.7
	c1.7,1.7,3.6,3.2,5.5,4.7c0.8,0.6,1.7,1.2,2.6,1.6c1.7,0.9,3.4,1.7,5,2.6c0.3,0.2,0.5-0.2,0.7-0.1c0.2,0.2,0.4,0.5,0.6,0.8
	c0.1,0.1,0.3,0.2,0.5,0.3c1,0.5,2.1,0.9,3.3,1.1c0.5,0.1,1,0,1.5,0.3c0.5,0.3,1,0.1,1.5,0.3c0.9,0.3,1.7,0.4,2.6,0.6
	c0.7,0.1,1.3,0.1,2,0c0.8-0.1,1.4,0.4,2.1,0.4C49.4,75,49.8,75,50.3,75z M119,49.4c-0.7-0.2-1.5,0.1-1.9,0.7
	c-0.1,0.1-0.2,0.2-0.3,0.3c-1.1,1.3-2.1,2.6-1.9,4.5c0.1,0.7,0.1,1.4-0.1,2.1c-0.2,0.6-0.3,1.3-0.3,1.9c0,0.5,0,0.9,0,1.4
	c0,0.4,0,0.8,0,1.2c0.1,0.5-0.4,0.8-0.2,1.3c0.2,0.4,0.2,0.9,0.1,1.4c0,4.4,0,8.8,0,13.2c0,0.3,0.1,0.7-0.1,1
	c-0.3,0.6-0.4,1.3-0.3,1.9c0,1.9,0,3.8-0.1,5.7c0,0.3,0.1,0.7,0,1c-0.5,0.9-0.2,1.9-0.3,2.9c-0.1,0.5,0.1,1-0.1,1.4
	c-0.3,1-0.4,2-0.3,3.1c0,0.7,0,1.4,0,2.2c-0.6,1-0.1,2.2-0.7,3.2c0,0.8-0.1,1.7-0.3,2.5c-0.3,0.8,0,1.8-0.5,2.7
	c0.1,1.8-0.9,3.4-0.9,5.1c-0.7,1-0.6,2.2-1.1,3.3c-0.3,1.2-0.7,2.3-1.2,3.5c-0.1,0.1,0,0.4-0.1,0.6c-0.4,1.4-0.9,2.7-1.5,4
	c-0.8,1.1-1.5,2.3-2.1,3.5c-0.1,0.2-0.2,0.3-0.4,0.4c-0.7,0.7-1.3,1.5-1.8,2.3c-0.5,0.7-1.1,1.3-1.7,1.9c-0.8,0.7-1.7,1.2-2.5,1.8
	c-0.5,0.4-1.1,0.7-1.7,0.8c-0.2,0-0.6,0.2-0.6,0.4c-0.2,1.1-1.1,1.9-1,3.1c-0.1,0.8-0.4,1.5-0.8,2.1c-0.2,0.3-0.3,0.6-0.4,0.9
	c-0.4,1.1-0.8,2.2-1.3,3.2c-0.4,0.8-0.7,1.7-1,2.5c-0.3,0.6-0.4,1.3-0.7,2c-0.1,0.1-0.1,0.2,0.1,0.3c0.1,0,0.1,0,0.2,0
	c1.3-0.6,2.7-0.9,4-1.5s2.9-0.8,4.1-1.6c1.4-0.5,2.8-1.1,4.1-1.8c1.4-0.7,2.7-1.6,3.9-2.5c1.1-0.7,2.1-1.6,3-2.5
	c1.4-1.2,2.6-2.5,3.7-4c0.9-1.1,1.7-2.3,2.4-3.5c1.1-2.1,2.4-4.2,3.4-6.3c0.7-1.5,1.3-3,1.8-4.5c0.6-1.7,1-3.4,1.6-5.1
	c0.3-1.2,0.6-2.4,1-3.5c0.2-0.6,0.4-1.2,0.4-1.9c0.1-0.8,0.4-1.5,0.5-2.3c0.1-0.8,0.3-1.5,0.4-2.3c0.1-0.4,0.4-0.7,0.3-1.1
	c-0.1-1.3,0.5-2.6,0.5-3.9c0-0.2,0-0.4,0.1-0.6c0.4-0.5,0.1-1.2,0.3-1.7c0.2-0.5,0.3-1.1,0.3-1.7c0-0.4-0.1-0.9,0.1-1.2
	c0.3-0.7,0.4-1.4,0.3-2.1c0-1.1,0-2.2,0.1-3.4c0-0.3,0-0.7,0.1-1c0.3-0.6,0.4-1.3,0.2-1.9c-0.1-0.7,0.5-1.2,0.4-1.9
	c0-0.5,0-1.1,0-1.6c0-0.5,0-1.1,0-1.6s0-1.1,0-1.6s0-0.9,0-1.4c0-0.5,0-1.1,0-1.6s0-1.1,0-1.6c-0.1-0.5,0-1,0.1-1.6
	c0.2-0.6-0.1-1-0.1-1.5c0-1.6,0-3.3,0-4.9c0-0.3,0.1-0.7,0-1c-0.6-1,0-2.2-0.7-3.2c-0.1-1.3-0.4-2.6-0.8-3.8c-0.8-2.6-2.3-5-4.2-6.9
	C121.6,50,120.3,49.5,119,49.4z"/>
<path class="st0" d="M68.8,24.5c0.9,0,1.9,0.2,2.7,0.6c1.3,0.5,2.4,1.2,3.4,2.2c0.8,1,1.5,2.1,2,3.3c0.1,0.2,0.1,0.4,0.1,0.6
	c0.2,1.4,0,2.9-0.5,4.2c-0.1,0.4-0.2,0.9-0.3,1.3c-0.1,0.4-0.3,0.8-0.4,1.1c-0.2,0.7-0.6,1.3-1.1,1.8c-0.7,0.6-1.4,1.1-2.1,1.7
	c-0.4,0.3-0.9,0.5-1.4,0.6c-0.4,0-0.8,0.2-1.1,0.4c-1.3,0.7-2.8,0.4-4.2,0.4c-0.8-0.3-1.5-0.7-2.2-1.2c-0.4-0.4-0.7-0.8-1.1-1.1
	c-0.3-0.3-0.6-0.7-0.6-1.2c-0.1-0.4-0.2-0.7-0.5-1c-0.5-0.9-0.9-1.9-1-2.9c-0.3-0.8-0.2-1.6,0.3-2.3c-0.1-0.7,0.6-1.3,0.5-2.1
	c0-0.2,0.2-0.3,0.2-0.5c0.3-0.6,0.8-1.2,1.1-1.8c0.4-0.8,1-1.5,1.8-2c0.4-0.2,0.7-0.5,1.1-0.8c0.7-0.8,1.7-1.2,2.8-1.2L68.8,24.5z
	 M61.9,34c-0.1,1,0,2,0.4,3c0.7,1.7,1.6,3.2,3.5,3.9c0.6,0.2,1.1,0.2,1.7,0.2c0.1,0,0.2-0.2,0.2-0.2c-0.1-0.3-0.2-0.6-0.2-0.9
	c0.1-1.6-0.6-3.2-0.5-4.8c-0.4-0.4,0.1-0.9-0.1-1.2c-0.3-0.6-0.4-1.3-0.3-1.9c0-1.5,0-3,0-4.5c0-0.3,0-0.5-0.1-0.8
	c0-0.1-0.2-0.2-0.3-0.2c-1.1,0.5-1.9,1.3-2.6,2.2c-0.5,1-0.8,2-1.3,3C62.1,32.1,62,32.5,62,33C62,33.3,62,33.7,61.9,34L61.9,34z
	 M70.6,26.1c-0.2,0.1-0.3,0.2-0.3,0.2c-0.1,0.6-0.1,1.3,0.1,1.9c0.2,0.7,0.3,1.4,0.3,2.1c0,0.5,0,1,0.1,1.5c0.5,1.2,0.7,2.5,0.7,3.8
	c0,0.1,0,0.3,0,0.4c0.4,0.6,0.3,1.2,0.4,1.9s-0.2,1,0.2,1.5c0.7,0.1,0.9-0.6,1.4-0.9c0.6-0.5,1-1.2,1.2-2c0.2-0.7,0.4-1.3,0.5-2
	c0.1-0.4,0.3-0.9,0.5-1.3c0.2-0.5-0.2-0.8-0.2-1.3c0.2-1-0.4-1.8-0.8-2.8c-0.4-0.9-1.1-1.6-1.9-2.1C72,26.7,71.3,26.4,70.6,26.1
	L70.6,26.1z"/>
<path class="st0" d="M49.7,65.1c0-0.8,0.2-1.5,0.4-2.3c0.3-0.6-0.1-1.4,0.3-2.1c0.1-0.3,0.1-0.7,0.1-1c0-0.8,0-1.6,0.1-2.4
	c0.2-0.9,0.3-1.8,0.4-2.7c-0.1-0.9-0.1-1.7,0-2.6c0-0.1,0.1-0.3,0.1-0.4c0.2-0.3,0-0.5-0.1-0.7l-1.4-1.4c-0.8-0.9-1.4-1.9-1.7-3.1
	c-0.3-0.9-0.6-1.8-1-2.7c-0.2-0.5-0.2-1,0.1-1.5c0.6-0.9,1.3-1.8,2.2-2.4c0,0,0.1-0.1,0.2-0.1c0.1,0,0.1,0,0.2,0
	c1,0.2,1.8-0.7,2.9-0.5c0.4,0.1,0.9,0,1.4,0.1c0.5,0.1,1,0.3,1.5,0.5c0.8,0.2,1.3,0.9,1.3,1.8c0,1.2,0,2.4,0,3.5
	c0,0.2-0.1,0.4-0.2,0.5c-0.4,1.1-1,2.1-1.8,3c0,0-0.1,0.1-0.1,0.2c-1.1,1.5-1.3,2.5-0.4,4.3c0.7,1.4,1.1,3,1.8,4.5
	c0.6,1.4,1.2,2.9,1.6,4.5c0.2,0.6,0.5,1.2,0.9,1.7c0.4,0.4,0.3,1-0.1,1.4c0,0-0.1,0.1-0.1,0.1c-0.2,0.1-0.4,0.1-0.5,0
	c-0.5-0.4-1.1-0.8-1-1.6c0-0.1,0-0.3,0-0.4c-0.4-0.8-0.7-1.7-0.9-2.5c-0.4-1-1-2-1.2-3s-0.9-1.8-1.1-2.9c0-0.1-0.1-0.2-0.2-0.3
	s-0.2-0.4-0.5-0.2s-0.3,0.2-0.3,0.4c0,0.8,0,1.7-0.1,2.6c0.1,0.5,0,1.1-0.3,1.5c-0.1,0.2-0.1,0.4-0.1,0.6c0,0.5,0,0.9,0,1.4
	c0,0.4-0.4,0.7-0.2,1.1c0.2,0.4-0.3,0.8-0.2,1.3c0,0.5,0,0.9,0,1.4c0,0.5,0,0.9,0,1.4c0,0.5-0.1,0.6-0.7,1.4
	c-0.2,0.3-0.3,0.5-0.6,0.2c-0.4-0.3-0.6-0.6-0.3-1.1C49.8,66.1,49.7,65.6,49.7,65.1z"/>
<path class="st0" d="M41.4,35.3c0.1,0.7,0,1.4-0.3,2.1c-0.3,0.5,0,1.3-0.4,1.9c-0.1,0.2-0.1,0.4-0.1,0.6c-0.1,0.7-0.4,1.4-0.9,1.9
	c-0.7,0.7-1.4,1.4-2.1,2.1c-0.2,0.2-0.4,0.3-0.7,0.4c-1.2,0.4-2.3,0.8-3.5,1c-0.1,0-0.1,0.1-0.2,0.1c-0.6-0.5-1.4-0.1-2.1-0.4
	c-0.3-0.2-0.8-0.2-1.1-0.4c-0.5-0.3-1-0.6-1.4-1c-0.7-0.7-1.2-1.6-1.5-2.5c-0.2-0.4-0.3-0.9-0.5-1.3c-0.2-0.4-0.3-0.8-0.3-1.3
	c0-0.4-0.1-0.8-0.3-1.1c-0.1-0.2-0.2-0.5-0.1-0.7c0.5-0.7,0.2-1.4,0.4-2.1s0.5-1.3,0.7-2c0.4-1.1,1-2.1,1.9-2.8
	c0.8-0.6,1.5-1.3,2.3-1.8c0.8-0.5,1.6-0.6,2.3-1c0.2,0,0.4,0,0.6,0c0.1,0,0.1,0,0.2,0c0.8,0.4,1.7,0.4,2.6,0.7
	c0.1,0,0.2,0.1,0.3,0.2c1.1,0.8,2,1.9,2.7,3.1c0.1,0.3,0.3,0.6,0.4,0.9C41.3,32.8,41.6,34.1,41.4,35.3z M39.9,35.5L39.9,35.5
	c0-0.3,0-0.5,0-0.8c0.2-1.2-0.2-2.4-1-3.2c-0.1-0.2-0.3-0.4-0.4-0.7c-0.6-1.1-1.6-1.9-2.8-2.3c-0.2-0.1-0.4-0.1-0.6-0.1
	c-0.3,0-0.5,0.3-0.4,0.5c0.3,0.4,0.4,0.8,0.3,1.3c-0.1,0.6-0.1,1.2,0,1.8c0.3,0.9,0.4,1.8,0.3,2.7c0.1,0.8,0.2,1.5,0.4,2.3
	c0.1,0.8,0.1,1.7,0.1,2.6c0,0.1,0.1,0.2,0.2,0.3c0.3,0.8,0.3,1.7,0,2.5c-0.2,0.3,0.1,0.3,0.3,0.3c0.3,0,0.5-0.1,0.7-0.2
	c1.7-1.4,2.7-3.4,2.8-5.5C39.9,36.4,39.9,36,39.9,35.5L39.9,35.5z M27.6,36.3c0,0.8-0.1,1.4,0.3,1.9c0,1.2,0.4,2.4,1.1,3.4
	c0.1,0.2,0.1,0.4,0.3,0.5c1,0.6,2,1.5,3.3,1.3c0.3,0,0.3-0.1,0.2-0.5c-0.6-1.1-0.9-2.4-0.9-3.7c0.1-0.6,0.1-1.2-0.1-1.8
	c-0.3-1.1-0.4-2.2-0.3-3.3c0-1.5,0-3,0-4.5c0-0.1,0-0.2-0.1-0.4c-0.1,0-0.2,0-0.3,0.1c-0.3,0.3-0.7,0.7-1,0.9
	c-0.6,0.6-1.1,1.3-1.5,2c-0.6,0.9-0.5,2-0.9,2.9C27.6,35.6,27.6,36,27.6,36.3L27.6,36.3z"/>
<path class="st0" d="M21.8,47.4l1.7,0.5c0.2,0.1,0.5,0.2,0.7,0.3c0.8,0,1.7,0.1,2.5,0.2c0.8,0.2,1.7,0.2,2.5,0.2
	c0.3,0,0.6-0.1,0.8,0c0.7,0.5,1.6,0.1,2.2,0.5c0.5,0.3,1.1,0,1.5,0.3c0.4,0.3,1.2,0.1,1.7,0.4c0.5,0.3,1,0.2,1.5,0.3
	c1.2,0.3,2.3,0.6,3.5,0.8c0.4,0.1,0.8,0.4,1.2,0.7c0.1,0.2,0.2,0.4,0.1,0.6c0,0.2-0.3,0.4-0.6,0.4s-0.6-0.2-0.9-0.2
	c-0.6-0.3-1.3-0.5-2-0.6c-0.7,0-1.3-0.6-2.1-0.4c-0.2,0-0.5-0.2-0.7-0.2c-0.9-0.1-1.7-0.5-2.6-0.6c-0.9,0-1.6-0.6-2.5-0.4
	c-0.6,0.1-1-0.4-1.7-0.4c-0.6,0.1-1.2,0.1-1.8-0.1c-0.9-0.2-1.8-0.3-2.7-0.4c-0.9-0.2-1.9-0.4-2.9-0.4c-0.4,0-0.7-0.3-0.9-0.7
	c-0.1-0.3,0-0.7,0.3-0.8c0.1,0,0.1,0,0.2,0L21.8,47.4z"/>
<path class="st0" d="M61.5,50.6c-0.2-0.1-0.4-0.1-0.5-0.1s-0.1-0.2-0.1-0.3c0.1-0.8,1-0.8,1.1-1.5c0-0.1,0.2-0.1,0.3-0.1
	c0.9-0.1,1.8-0.3,2.6-0.6c0.9-0.1,1.8-0.4,2.6-0.7c0.4-0.2,0.9-0.3,1.3-0.3c0.5-0.1,0.9-0.4,1.5-0.4c0.4-0.1,0.9-0.2,1.3-0.3
	c0.7-0.2,1.4-0.3,2.1-0.4c0.8-0.1,1.5-0.3,2.2-0.6c0.7-0.4,1.5,0,2-0.6c0.1-0.1,0.5,0,0.8,0c0.3,0,0.5,0.2,0.5,0.4c0,0,0,0,0,0.1
	c0,0.1,0,0.3,0,0.4c0,0.5-0.1,0.7-0.5,0.7c-0.9,0-1.8,0.2-2.6,0.6c-0.2,0.1-0.5,0.1-0.7,0.2c-0.5,0-1.1,0-1.6,0.1s-0.9,0.3-1.5,0.4
	c-1,0.1-2,0.4-3,0.8c-0.5,0.2-1.1,0.4-1.7,0.4c-0.4,0-0.6,0.2-0.9,0.3c-0.8,0.2-1.6,0.5-2.4,0.6c-0.7,0.2-1.5,0.5-2.1,0.9
	C62,50.5,61.8,50.6,61.5,50.6z"/>
<path class="st0" d="M39.5,16.2c-0.3,0-0.5,0-0.8,0c-1.5-0.1-3,0.3-4.3,0.9c-0.9,0.4-1.9,0.8-2.8,1.2c-0.9,0.4-1.5,1.2-2.4,1.7
	c-0.2,0.1-0.3,0.4-0.4,0.6c-0.3,0.4-0.6,0.7-0.9,1c-0.2,0.1-0.5,0.1-0.7,0c-0.2,0-0.3-0.7-0.2-0.9c0.5-0.7,1-1.3,1.5-2
	c1.1-0.5,1.7-1.6,3-1.8c0.5-0.1,0.9-0.3,1.3-0.6c1-0.6,2.1-0.6,3-1.3c0.9,0.1,1.7-0.5,2.7-0.4s2,0,3,0c0.5,0.1,0.8,0.5,0.8,1
	c0,0.3-0.1,0.6-0.4,0.6L39.5,16.2L39.5,16.2z"/>
<path class="st0" d="M65.3,51.4c0.9-0.1,1.7,0,2.6,0.3c0.4,0.1,0.9,0.1,1.4,0.1h8.5h0.8c0.3,0,0.5,0.2,0.5,0.7c0,0.2,0,0.4,0,0.6
	c0,0.1-0.1,0.2-0.2,0.3c-0.2,0-0.4,0-0.6,0c-0.4,0-0.8-0.1-1.1-0.2c-0.4-0.2-0.7,0.3-1.1,0.2s-0.7,0.1-0.9-0.2s-0.4,0.2-0.7,0.1
	c-0.9-0.5-1.9-0.1-2.9-0.2c-0.2,0-0.3,0.2-0.5,0.2c-0.4,0.1-0.9,0.1-1.3,0.1c-1.5-0.6-3-0.3-4.5-0.4c-0.5,0-1.1,0-1.6,0
	c-0.5,0-0.7-0.2-0.8-0.6s0-0.8,0.3-0.9c0.2,0,0.4,0,0.6,0L65.3,51.4z"/>
<path class="st0" d="M71.6,56.5h4.3c0.3,0,0.5,0,0.8,0c0.5,0.2,0.8,0.7,0.7,1.3c-0.2,0.4-0.6,0.7-1.1,0.5C76,58.1,75.6,58,75.2,58
	c-1.2-0.1-2.3,0.2-3.5-0.2c-1.2,0.5-2.6,0.2-3.8,0.2c-1.8,0.1-3.5,0-5.3,0c-0.5,0-0.7-0.2-0.6-0.8c0-0.2,0.2-0.4,0.3-0.4
	c0.7,0,1.4,0,2.2,0c0.6,0.1,1.2,0,1.7-0.3c0.2-0.1,0.5-0.1,0.8-0.1L71.6,56.5z"/>
<path class="st0" d="M26.9,55.2c0.7,0,1.4,0,2.2,0s1.6-0.4,2.5-0.4c0.8,0.2,1.6,0.1,2.3-0.3c0.2-0.2,0.6,0,1-0.1h3.3
	c0.4,0,0.8-0.1,1.1-0.3c0.2-0.1,0.4-0.1,0.6-0.1c0.4,0.1,0.7,0.4,0.8,0.7c-0.1,0.3-0.3,0.6-0.6,0.7c-0.2,0-0.4,0.1-0.6,0.1
	c-1.2,0-2.4,0-3.5,0c-0.8,0-1.6-0.2-2.3,0.3c-0.8,0-1.7,0-2.6,0.1c-0.6,0-1.2,0-1.7,0.3c-0.4,0.1-0.9,0.2-1.3,0.1
	c-0.9,0-1.8,0.1-2.8,0c-0.7-0.1-1.2,0.6-1.9,0.4c-0.3-0.1-0.6-0.2-0.5-0.7c0-0.2,0.1-0.5,0.2-0.5c0.5-0.2,1-0.5,1.7-0.5
	S26.1,55.2,26.9,55.2L26.9,55.2z"/>
<path class="st0" d="M75.9,16.1c-0.1,0.2-0.3,0.4-0.5,0.6c-0.2,0.2-0.5,0.3-0.7,0.1c-0.7-0.6-1.5-1-2.3-1.4c-0.9-0.6-2-0.9-3.1-0.9
	c-0.2,0-0.4,0-0.6-0.1c-0.3-0.2-0.6-0.2-0.9,0c-0.2,0.1-0.6,0.2-0.7,0.1c-0.7-0.5-1.3,0.1-2,0c-0.5-0.1-0.9,0.5-1.4,0.1
	c-0.5,0.2-0.9,0.4-1.4,0.5c-0.3,0.1-0.6,0.1-0.9,0.1c-0.3,0-0.5-0.1-0.6-0.4c0,0,0,0,0-0.1c0-0.3,0-0.6,0.3-0.7
	c0.8-0.2,1.6-0.5,2.4-0.8c0.4-0.2,1,0,1.5-0.4c0.6,0.7,1.2-0.2,1.8-0.1c0.7,0.1,1.3,0.1,2,0c1.1-0.1,2,0.4,3.1,0.4
	c0.1,0,0.3,0,0.4,0.1c1.1,0.7,2.2,1.4,3.4,1.9C75.7,15.6,75.8,15.9,75.9,16.1z"/>
<path class="st0" d="M41.4,59.2c0,0.1-0.1,0.3-0.2,0.4c-1.2,0.3-2.1,1.3-3.2,1.8c-1.1,0.5-2.1,1-3.1,1.5c-0.6,0.3-1.3,0.6-1.9,0.8
	c-0.7,0.3-1.5,0.3-2.1,1c-0.2,0.2-0.5,0.4-0.8,0.4c-0.3,0-0.5,0-0.7-0.2c-0.2-0.3-0.2-0.6,0-0.9c0.2-0.2,0.4-0.3,0.6-0.5
	c1.3-0.6,2.7-1.2,4.1-1.6c0.5-0.1,1-0.3,1.4-0.6c0.7-0.6,1.6-0.7,2.3-1.3s1.4-0.9,2.1-1.4c0.3-0.2,0.7-0.3,1.1-0.2
	C41.3,58.5,41.5,58.7,41.4,59.2z"/>
</svg>
