<?xml version="1.0" encoding="utf-8"?>
<!-- Generator: Adobe Illustrator 21.0.2, SVG Export Plug-In . SVG Version: 6.00 Build 0)  -->
<svg version="1.1" id="Layer_1" xmlns="http://www.w3.org/2000/svg" xmlns:xlink="http://www.w3.org/1999/xlink" x="0px" y="0px"
	 viewBox="0 0 124.4 144.9" style="enable-background:new 0 0 124.4 144.9;" xml:space="preserve">
<style type="text/css">
	.st0{fill:#666666;}
</style>
<title>puppies</title>
<path class="st0" d="M63,0.1c1.4,0.1,2.8,0.1,4.1,0.2c0.7-0.1,1.5,0.1,2.2,0.4c0.2,0.1,0.5,0,0.7,0c1,0.1,2,0,2.8,0.5
	c0.2,0.1,0.5,0,0.7,0c0.7,0.1,1.5-0.1,2.1,0.5c0.1,0.1,0.2,0,0.4,0c0.7,0,1.4,0.1,2,0.4c0.5,0.3,1.2,0.1,1.8,0.5
	c0.4,0.2,1,0.1,1.4,0.3s0.8,0.3,1.2,0.3c0.5,0.2,0.9,0.3,1.4,0.5c0.6,0.2,1.3,0.3,1.9,0.6c1.4,0.5,2.7,1.1,4,1.7
	c0.7,0.4,1.4,0.7,2.1,1c0.8,0.3,1.4,0.7,2.1,1.2c1.1,0.5,2.2,1.1,3.2,1.8c0.9,0.3,1.6,0.8,2.3,1.5c0.9,0,1.4,1.1,2.3,1.1
	c0.8,0.5,1.6,1,2.3,1.6c0.8,0.6,1.6,1.2,2.4,1.7c1.1,0.6,2,1.4,2.9,2.3c0.5,0.6,1.3,0.9,1.8,1.6c0.4,0.6,1,1.1,1.6,1.5
	c0.7,0.9,1.7,1.6,2.2,2.7c0,0.1,0.1,0.1,0.1,0.2c0.8,0.9,1.5,1.9,2.2,2.9c1.3,1.4,2.5,2.9,3.6,4.5c0.6,0.7,1,1.5,1.4,2.4
	s0.8,1.8,1.3,2.6c0.4,0.6,0.6,1.3,0.8,2c0.2,0.6,0.1,1.1-0.3,1.6c-0.3,0.6-0.7,1.2-1.1,1.7c-0.3,0.3-0.5,0.7-0.7,1.1
	c-0.4,1-1.2,1.6-1.6,2.5c-0.5,0.8-1.1,1.5-1.7,2.2c-0.8,1.1-1.9,2-2.6,3.1l-0.1,0.1c-1.6,1.5-2.9,3.2-4.7,4.6
	c-0.4,0.3-0.8,0.6-1.2,0.8c-0.7,0.3-0.9,0.3-1.3-0.2c-0.8-0.8-1.5-1.6-2.1-2.6l-0.1-0.1l-0.1,0.1c0,0.9-0.7,1.7-0.6,2.7
	c-0.6,1.5-1,3-1.5,4.5c-1.1,2.6-2.4,5.2-4,7.5c-0.4,0.7-0.9,1.3-1.4,1.9c-0.3,0.3-0.5,0.7-0.7,1.1c-0.3,0.6-0.7,1-1.2,1.4
	c-0.5,0.5-1.1,1-1.5,1.6c-0.4,0.4-0.6,1.1-0.3,1.7c0.6,1.2,1,2.5,1.3,3.8c0,0.1,0.2,0.2,0.2,0.3c-0.2,1,0.4,1.9,0.3,2.9
	c-0.1,0.8,0.4,1.5,0.3,2.4s-0.1,1.7-0.1,2.6c0,0.8-0.1,1.6-0.1,2.4s-0.1,1.6-0.1,2.4s-0.1,1.8-0.1,2.6c0,0.9-0.1,1.6-0.1,2.4
	c0,0.4-0.1,0.8-0.3,1.2c-0.1,0.5-0.2,1-0.2,1.5s-0.2,1.1,0.1,1.6c0.5-0.2,1-0.4,1.5-0.7c0.2-0.1,0.4-0.3,0.6-0.5
	c1.3-0.9,2.5-1.8,3.6-2.9c1.9-1.4,3.8-2.9,5.4-4.6c1-0.9,1.8-1.9,2.7-2.8c0.9-0.9,1.7-1.9,2.5-2.9c1.4-1.6,2.7-3.3,4-5.1
	c0.9-1,1.7-2.1,2.4-3.3c0.1-0.3,0.9-0.2,1,0.1c0.1,0.5,0.5,0.9,0.4,1.4c0,0.9,0,1.9-0.1,2.8s-0.5,1.8-0.6,2.7
	c-0.5,0.4-0.2,1.1-0.5,1.6s-0.4,1.2-0.8,1.6c-0.4,0.5-0.3,1.1-0.7,1.5c-0.3,0.4-0.6,0.9-0.8,1.4c-0.7,1.2-1.4,2.3-1.9,3.5
	c-0.6,1-1.4,2-2.2,3c-0.6,0.8-1.2,1.5-1.7,2.4c0,0.1-0.1,0.2-0.2,0.3c-0.7,0.7-1.4,1.4-2,2.2c-0.5,0.8-1.1,1.5-1.7,2.2
	c-0.8,0.9-1.7,1.6-2.6,2.4l-1.3,1.1c-0.1,0.1-0.2,0.2-0.1,0.4c0,0,0,0.1,0.1,0.1l1.2,1.1c0.4,0.3,0.8,0.7,1.2,1.2
	c0.9,1.1,1.5,2.4,2,3.7c0.4,0.4,0.2,1,0.5,1.6c0.1,0.4,0.1,0.9,0,1.3c-0.1,2-0.2,4-0.3,6c0,0.4-0.1,0.9-0.3,1.2
	c-0.1,0.2-0.2,0.5-0.2,0.7c0,0.6-0.1,1.1-0.4,1.6c-0.3,0.4,0,1-0.4,1.4c-0.2,0.9-0.5,1.8-0.9,2.6c0,0.1,0.1,0.3,0.2,0.4
	c1.2,1.1,2.1,2.5,2.6,4.1c0.2,0.9,0.5,1.8,0.8,2.6c0.2,0.4-0.2,1.2-0.7,1.2c-0.6,0-1.2,0.4-1.8,0.3c-0.6-0.1-1.2,0-1.8,0.3
	c-0.8,0.3-1.7,0.4-2.5,0.3c-0.4-0.1-0.8-0.1-1.1-0.1c-0.6-0.1-1.1,0-1.7,0.1c-0.5,0.2-1.1,0-1.6,0.2c-0.4,0.1-0.8,0.2-1.3,0.2
	c-0.6-0.1-1.2,0-1.8,0.2c-0.3,0.2-0.7,0-1.1,0c-0.5-0.1-1,0-1.5,0.2c-0.2,0.1-0.5,0.1-0.7,0.1c-0.7,0-1.5-0.1-2.3-0.1
	c-1.1,0-2.2-0.3-3.3,0.2c-1.1-0.1-2.1-0.1-3.2-0.1c-0.9-0.2-1.9-0.1-2.8,0.2c-0.2,0.1-0.6,0-0.9,0l-5.3-0.3c-0.5-0.1-1-0.1-1.5,0
	c-0.3,0.2-0.7,0.1-1-0.1c-0.5-0.3-1-0.5-1.6-0.5c-1.4-0.1-2.8-0.1-4.1-0.2c-0.4-0.1-0.9,0-1.3,0.2c-0.3,0.1-0.6,0.1-0.9,0.1
	c-1.5-0.1-3-0.2-4.5-0.2c-0.6-0.1-1.3-0.1-1.8,0.2c-0.2,0.1-0.6,0-0.9,0c-0.8,0-1.6-0.1-2.4-0.1c-0.5-0.1-1,0-1.5,0.2
	c-0.2,0.1-0.6,0-0.9,0.1c-0.6-0.1-1.2,0-1.8,0.2c-0.5,0.3-1.2-0.2-1.8,0.3c-0.1,0.1-0.2,0.1-0.4,0.1c-0.6,0-1.2,0-1.8,0.2
	s-1.2-0.1-1.8,0.3c-0.6,0-1.1,0.1-1.6,0.3c-0.5,0.1-1,0-1.5-0.1c-0.9,0-1.8-0.1-2.6-0.1c-0.9-0.2-1.7-0.1-2.6,0.2
	c-0.2,0.1-0.6,0-0.9,0l-2.4-0.1c-0.4-0.1-0.8-0.1-1.1-0.1c-0.3,0.1-0.7,0.2-1,0.3c-0.7,0.2-1.3,0.3-2,0.3s-1.5,0.1-2.2,0.3
	c-0.4,0.1-0.8,0.2-1.3,0.2c-1.1-0.1-2.1-0.1-3.2-0.2c-0.7-0.1-1.4-0.1-2,0.2c-0.3,0.2-0.7,0-1.1,0c-0.9,0-1.9-0.3-2.8,0.2
	c-0.1,0.1-0.4,0-0.6,0c-0.5,0-1.1-0.1-1.6,0.2c-0.1,0.1-0.4,0-0.6,0l-5.6-0.3c-0.4-0.1-0.6-0.4-0.7-0.8c0-0.6,0.1-1.1,0.3-1.6
	c0.2-0.4,0.4-0.9,0.6-1.3c0.1-0.4,0.3-0.7,0.5-1c0.1-0.1,0.3-0.2,0.4-0.4c0.4-0.4,0.8-0.6,1.1-1.1c0.2-0.4-0.4-0.8-0.6-1.3
	c-0.6-1.5-1.4-2.9-1.9-4.4c-0.4-1-0.7-2.1-0.8-3.2c-0.3-0.7-0.4-1.4-0.2-2.2c0-0.3,0.1-0.6,0.2-0.9c0.2-0.3,0.3-0.7,0.3-1.1
	c0-0.3,0.1-0.6,0.2-0.9c0.1-0.2,0.2-0.4,0.2-0.7c0.3-2.4,1.4-4.6,3.2-6.3c0.6-0.5,1.1-1,1.5-1.6c0.5-0.5,1.2-0.9,1.8-1.2
	c0.2-0.2,0.5-0.4,0.8-0.5c1.3-0.5,2.5-1.3,3.8-1.9c0.4-0.2,0.9-0.4,1.4-0.4c0.5-0.1,1-0.2,1.4-0.5c0.1-0.1,0.3-0.4,0.2-0.4
	c-0.3-0.4-0.2-0.8-0.2-1.3c0-0.4,0.1-0.9-0.2-1.3c-0.1-0.2-0.1-0.4-0.1-0.5c0-0.6,0-1.3,0.1-1.9s-0.3-1.2-0.2-1.8
	c0.1-1.2,0.1-2.5,0.1-3.8c0.1-0.5,0.1-1-0.2-1.5c-0.1-0.2-0.1-0.5-0.1-0.7c0-0.5,0.1-1,0.1-1.5c0-0.7,0.3-1.4-0.2-2
	c0-0.7-0.2-1.5,0.4-2.2c0.1-0.1,0.1-0.3,0-0.3c-0.5-0.4,0.1-0.8,0.1-1.2c-0.3-0.9-0.2-1.8,0.1-2.7c0.1-0.3,0.1-0.6,0.1-0.9
	c0.1-1,0.1-2,0.2-3s-0.1-1.7,0.5-2.5c0.1-0.2,0-0.5,0-0.7c0-0.6,0.1-1.2,0.3-1.8c0.3-0.5,0.1-1.2,0.4-1.6s0.3-1.2,0.7-1.7
	c0.2-0.3,0.2-0.8-0.1-1c-0.7-0.8-1.4-1.6-2.2-2.4c-1-0.9-1.5-2.1-2.4-3.1c-1-1.8-1.9-3.7-2.5-5.7c-0.3-0.7-0.5-1.3-0.7-2
	c-0.1-0.7-0.3-1.4-0.6-2.1c-0.3-0.7-0.4-1.4-0.4-2.2c0-0.2-0.1-0.5-0.2-0.7c-0.2-0.6-0.3-1.2-0.4-1.8c0-0.6-0.4-1-0.4-1.6
	c0-0.5-0.1-1.1-0.3-1.6c0-0.2-0.1-0.2-0.3-0.1C11.5,52.7,9.9,53,8.6,54c-0.2,0.1-0.5,0.1-0.7,0.1c-0.2,0.1-0.6,0.4-1,0.3
	c-0.5-0.2-0.9-0.6-1-1.1c-0.4-0.8-1-1.6-1.4-2.4c-0.5-1-0.9-2.1-1.4-3.2c-0.4-0.7-0.7-1.4-1-2.2c-0.3-1.1-0.6-2.1-1-3.1
	c-0.2-0.5-0.1-1.1-0.3-1.6c0.1-1.2-0.7-2.3-0.7-3.6c-0.3-0.4-0.3-1-0.2-1.4c0-0.6,0.1-1.1,0.1-1.7c0-0.2,0.1-0.4,0-0.5
	c-0.7-0.8-0.1-1.4,0.3-2c1.2-1.9,2.4-3.7,3.9-5.4c0.6-0.8,1.3-1.5,1.9-2.3c1.1-1.4,2.3-2.8,3.6-4c0.7-0.5,1.2-1.1,1.6-1.8l5-4.5
	c1.3-0.8,2.4-1.7,3.5-2.8c0.5-0.3,1-0.6,1.6-0.7c0.3-0.2,0.6-0.4,1-0.5c0.9-0.4,1.7-1,2.6-1.3c0.8-0.3,1.6-0.7,2.3-1.2
	c1.5-0.6,3.1-1.2,4.6-1.8c0.5-0.2,0.9-0.3,1.4-0.5c1.1-0.5,2.2-0.9,3.3-1.1c0.1,0,0.2,0,0.4-0.1c1.5-0.9,3.3-1,4.8-1.8
	c0.4-0.2,0.9,0,1.3-0.2s0.8-0.2,1-0.3C44.6,1,45.3,1.2,45.7,1s1.1-0.2,1.6-0.5s1.1,0.1,1.6-0.4c0.5,0,1,0.1,1.5,0
	c0.5,0,1-0.4,1.6-0.3c0.6,0.2,0.9-0.3,1.4-0.3s1.4,0.5,2,0.5c0.5,0.1,1,0,1.5-0.2c0.4-0.1,0.7-0.1,1.1-0.1L63,0.1L63,0.1z M57.3,1.3
	c-1.1,0.1-2.5-0.3-3.8,0.2c-0.5,0.2-1.2-0.1-1.6,0.1s-1.2,0-1.6,0.2S49,1.9,48.5,2.2s-1.2,0.1-1.8,0.4c-0.6,0.2-1.2,0.3-1.8,0.4
	c-1.2,0.3-2.3,0.7-3.5,1c-1.3,0.1-2.4,0.5-3.5,1c-0.1,0.1-0.2,0.1-0.3,0.1c-0.8,0-1.4,0.7-2.3,0.7c-0.8,0.3-1.6,0.6-2.4,0.9
	c-0.7,0.3-1.5,0.6-2.2,0.9c-0.4,0.2-0.9,0.4-1.4,0.5c-0.7,0.2-1.4,0.5-2,0.8C27.1,9,27,9.3,26.9,9.5c-0.2,1.1,0.4,2,0.2,3.1
	c0.3,0.4,0.4,0.9,0.2,1.4c-0.1,0.5,0.7,1,0,1.5c0.2,0.8,0.3,1.6,0.2,2.4c-0.1,0.8-0.1,1.6,0.2,2.4c0.2,0.4,0.1,0.9-0.1,1.3
	c-0.3,0.6-0.4,1.3-0.4,2s0,1.4-0.2,2c-0.3,0.7-0.4,1.4-0.4,2.2c0,0.2,0,0.4,0,0.5c-0.6,0.6-0.2,1.5-0.8,2.1
	c-0.1,0.8-0.3,1.6-0.7,2.3c-0.1,0.2-0.2,0.5-0.2,0.7c-0.1,0.7-0.4,1.3-0.7,1.9c-0.4,0.7-0.7,1.4-1,2.2c-0.2,0.8-0.9,1.4-0.9,2.2
	c-0.8,1.4-1.5,2.8-2.1,4.3c0,0.1-0.1,0.1-0.1,0.1c-1.3,1.8-2.8,3.6-4.3,5.3c-0.7,0.6-0.7,1.5-1.2,2.3c-0.2,0.4,0,0.8,0.2,1.2
	c0,0.1,0,0.3,0,0.4c-0.2,0.7,0.3,1.3,0.3,2s0.3,1.3,0.5,1.9c0.3,0.7,0.4,1.4,0.4,2.1c0.3,1.4,0.6,2.7,1.2,4.1c0.2,0.5,0.4,1,0.5,1.5
	c0.1,0.6,0.7,1,0.9,1.6c0.8,2.4,2.5,4.2,3.9,6.2c0.7,0.8,1.4,1.6,2.1,2.4c1.3,1.4,2.9,2.6,4.6,3.4c0.4,0.1,0.8,0.3,1.2,0.5
	c0.5,0.3,1,0.4,1.6,0.4c0.6,0,1.1,0.6,1.8,0.4c0.2,0,0.4,0,0.5,0c0.5-0.3,1.1-0.3,1.6-0.2c0.4,0,0.9-0.1,1.2-0.3
	c0.4-0.2,0.4-0.3,0.3-0.7c-0.3-0.7-0.6-1.5-1-2.2c-0.3-0.8-0.5-1.6-0.7-2.4c-0.3-0.7,0.2-1.5-0.4-2.2c-0.1-0.1,0-0.4,0-0.6
	c0-0.9,0.1-1.9,0.1-2.8c0-0.2,0-0.6,0.1-0.7c0.5-0.5,0.2-1.2,0.6-1.7c0.3-0.5,0.5-1.1,0.7-1.7c0.6-1.6,1.3-3.1,2.1-4.5
	c0.4-0.6,0.8-1.2,1.2-1.8c0.5-1.1,1.2-2,2.1-2.8c0.2-0.1,0.2-0.4,0.4-0.6c0.8-1,1.7-1.8,2.6-2.7c1.2-1.2,2.5-2.2,3.9-3.2
	c0.7-0.6,1.5-1.1,2.3-1.6c0.5-0.2,1-0.4,1.6-0.5c0.3-0.1,0.6-0.2,0.9-0.3c0.4,0,0.9,0,1.3,0.1c0.5,0.1,0.9-0.3,1.4-0.3
	c1.6,0.1,3.1,0.2,4.7,0.2c0.5,0,0.9,0.3,1.4,0.4c0.6,0.1,1.2,0.4,1.6,0.8c0.4,0.3,0.7,0.7,0.6,1.3c-0.1,0.3,0.1,0.6,0.3,0.8
	c0.5,0.6,0.9,1.1,1.5,1.7c1.1,1.2,2.1,2.6,2.9,4.1c0.7,1.3,1.5,2.5,2.2,3.8s1.4,2.6,2.1,3.9c0.7,1.4,1.4,2.9,2,4.3
	c0.2,0.8,0.4,1.6,0.7,2.4c-0.2,0.6,0.4,1,0.3,1.6c-0.1,1.8-0.2,3.5-0.3,5.3c0,0.1-0.1,0.2-0.1,0.3c-0.1,0.2-0.2,0.3,0,0.5
	c0.4,0.5,1,0.9,1.6,1.1c0.3,0.1,0.8,0,1.1,0.1s0.6,0.4,1,0.1c0.3,0.4,0.8,0.3,1.2,0.3s0.7,0,1.1,0.1c0.6,0.1,1.2,0.1,1.9,0
	c0.6-0.2,1.2-0.1,1.8-0.3c0.7-0.3,1.5-0.5,2.2-0.8c0.9-0.4,1.7-1,2.6-1.3c0.5-0.2,0.9-0.4,1.2-0.8c1.2-1.1,2.4-2.2,3.5-3.4
	c1.8-2.2,3.5-4.4,5-6.8c1.4-2.2,2.6-4.6,3.4-7.1c0.2-0.5,0.4-1,0.5-1.6c0-0.6,0.5-1,0.5-1.6s0.2-1.1,0.4-1.6
	c-0.4-0.7,0.1-1.1,0.5-1.6l0.1-0.1c0.3-0.2,0.2-0.3,0-0.6c-0.8-1.4-1.5-2.9-2.1-4.5c-0.5-1.2-0.8-2.4-1.3-3.6
	c-0.2-0.5-0.3-0.9-0.5-1.4c-0.2-0.8-0.4-1.6-0.7-2.5c-0.3-0.9-0.5-1.8-0.6-2.7c-0.4-0.5-0.1-1.1-0.3-1.6c-0.3-0.5,0-1.2-0.2-1.6
	c-0.2-0.5-0.3-1.1-0.3-1.6c0-0.2,0-0.4-0.1-0.5c-0.2-0.5-0.3-1.1-0.2-1.7c0-0.6-0.4-1.2-0.3-1.8c0.1-0.6,0-1.2-0.2-1.8
	c-0.1-0.7-0.1-1.3,0-2c0-0.1,0-0.1-0.1-0.2C98.8,23.6,99,23,99,22.5c0-0.8,0.1-1.6,0.1-2.4C98.5,19,99,17.9,99,16.8
	c0.7-0.9,0.1-2.1,0.7-3c0-0.1,0-0.2-0.1-0.3c-0.2-0.2-0.4-0.6-0.6-0.7c-0.9-0.5-1.8-1-2.6-1.6c-0.8-0.4-1.6-0.9-2.4-1.4
	s-1.6-0.9-2.4-1.3c-0.8-0.4-1.5-0.8-2.3-1.2c-0.7-0.5-1.6-0.6-2.3-1c-0.8-0.4-1.6-0.7-2.4-0.9c-0.7-0.3-1.4-0.5-2.1-0.6
	c-0.9,0-1.6-0.6-2.5-0.6c0-0.3-0.5-0.2-0.9-0.3c-0.4-0.2-0.9-0.3-1.4-0.4c-1.2,0-2.2-0.7-3.5-0.6c-0.7-0.4-1.5-0.6-2.3-0.5
	c-0.1,0-0.3,0-0.4,0C70.8,1.8,69.9,2,69,1.9s-1.9-0.1-2.8-0.1c-0.4,0-0.7-0.1-1.1-0.3c-0.3-0.2-0.8,0.4-1.1-0.1l-3.1-0.2
	c-0.4,0.3-0.8,0.2-1.3,0.2C58.9,1.4,58.2,1.3,57.3,1.3z M96.3,92.1c0.1-1,0.1-2,0.2-3c0.1-0.3,0-0.6,0-0.9c-0.2-0.5-0.3-1.1-0.2-1.6
	c0-0.8,0-1.6,0.1-2.4s-0.5-1.5-0.3-2.4c-0.2-0.6-0.3-1.3-0.4-2c-0.2-0.8-0.4-1.5-0.6-2.3c-0.1-0.4-0.3-0.7-0.5-1s-0.7-0.4-1-0.2
	c-0.3,0.2-0.5,0.4-0.7,0.6c-1.1,1-2.5,1.9-3.9,2.5c-0.5,0.3-1.1,0.5-1.7,0.7c-0.7,0.1-1.3,0.2-2,0.4c-0.6,0.3-1.3-0.1-1.8,0.4
	c-0.1,0.1-0.2,0-0.3,0c-0.5-0.5-1.2-0.3-1.8-0.4c-0.6-0.1-1.5-0.1-2.3-0.1L78,80.3c-0.5-0.6-1.4-0.2-1.9-0.7c-0.2-0.2-0.5-0.1-0.7,0
	c-0.4,0.3-0.7,0.7-0.9,1.2c-0.8,1.3-2,2.4-3.3,3.3c-0.9,0.6-1.9,1.1-3,1.4c-1.1,0.5-2.1,0.9-3.2,1.3c-0.8,0.2-1.7,0.3-2.5,0.5
	c-0.1,0-0.1,0.1-0.2,0.1c-0.1,0-0.2,0-0.4,0c-1.1-0.1-2.2,0-3.3,0.2c-0.7,0.1-1.5,0.1-2.2-0.1c-0.7,0-1.5-0.1-2.2-0.3
	c-0.7-0.2-1.5-0.3-2.2-0.3c-0.1,0-0.1,0-0.2-0.1c-0.3-0.3-0.8-0.4-1.2-0.3c-0.5,0-0.9-0.4-1.4-0.5c-0.5,0-0.9,0.1-1.2-0.3
	s-1-0.2-1.3-0.6c-0.2-0.2-0.5-0.4-0.8-0.4c-1.5-0.5-3-1.2-4.3-2.1c-0.7-0.4-1.5-0.9-2.2-1.4c-0.1-0.1-0.1-0.3-0.3-0.5
	c-0.1-0.1-0.3-0.2-0.5-0.3c-0.5-0.1-1,0-1.5,0.1c-0.6,0.2-1.2,0.4-1.8,0.4c-1.2,0-2.4-0.1-3.6-0.2c-0.4,0-0.8-0.4-1.2-0.4
	c-0.8-0.1-1.7-0.4-2.4-0.9c-1.1-0.5-2.2-1.2-3.1-2c-0.2-0.2-0.5-0.3-0.8-0.4c-0.1,0-0.3,0-0.3,0.1c-0.1,0.7-0.4,1.3-0.6,1.9
	c-0.1,0.7-0.3,1.4-0.5,2.2c0.2,0.9,0.2,1.6,0.2,2.4c0,0.1,0,0.3,0,0.4c-0.5,0.6-0.3,1.3-0.4,2c0,0.9-0.1,1.9-0.5,2.7
	c-0.1,0.1,0,0.4,0,0.5c-0.2,0.4,0.3,0.6,0.1,1C22,90.5,22,90.9,22,91.3c0,1.5-0.5,3.1,0.1,4.6C22,97,21.9,98,21.9,99.1
	c0,0.4-0.2,1-0.1,1.3c0.3,0.9,0.3,1.8,0.2,2.8c0,0.6-0.1,1.2,0,1.9c0.5,0.6,0.2,1.2,0.2,1.8c0,1-0.3,2,0.2,2.9
	c0.1,0.3-0.5,0.6-0.1,1c-0.1,0.7,0.3,1.3,0.3,2c-0.1,1.1-0.1,2.2,0.2,3.3c-0.1,0.8,0,1.6,0.3,2.4c0.1,0.8,0.3,1.7,0.5,2.5
	c0.3,0.8,0.2,1.7,0.6,2.5c-0.1,0.9,0.4,1.7,0.3,2.6c0,0.6,0.4,1.2,0.3,1.8c0,0.1,0.2,0.3,0.2,0.5c0,0.5,0.2,1,0.5,1.3
	c0.2,0.2,0.3,0.4,0.2,0.7c0,0.3,0,0.6,0.2,0.9c0.4,0.7,0.8,1.4,1.2,2.1c0.1,0.1,0.2,0.1,0.3,0.1c0.7-0.5,1.4-1,2.1-1.5
	c1.3-0.9,2.9-1.4,4.5-1.4c0.5,0.1,1,0,1.5-0.2c0.3-0.1,0.6-0.1,0.9,0c0.8,0.5,1.8,0.3,2.4,1.2c0.9,0.4,1.7,1,2.3,1.9
	c0.1,0.1,0.2,0.2,0.2,0.3c0.1,0.1,0.2,0.4,0.4,0.1c0.1-0.1,0.1-0.2,0-0.3c-0.2-0.3-0.3-0.7-0.3-1c0.1-1,0.1-2,0.2-3
	c0.1-0.3,0-0.6-0.1-0.9c-0.2-0.5-0.3-1-0.2-1.5c0-0.7,0.1-1.4,0.1-2.1c0-0.2,0-0.5-0.1-0.7c-0.4-1,0-2.1,0-3.1
	c0.6-0.7,0.3-1.6,0.5-2.3c0.1-0.6,0.1-1.2,0.2-1.9c0.5-0.4,0.2-1.1,0.5-1.5s0.2-1.1,0.7-1.5c0-0.6,0.4-1,0.6-1.5
	c0.3-0.7,0.6-1.3,1.1-1.9c0-0.5,0.3-0.8,0.6-1.1c0.3-0.4,0.6-0.8,0.9-1.2c0.7-0.6,1.4-1.3,2.1-1.9c0.9-0.8,2-1.5,3.1-1.9
	c0.8-0.3,1.7-0.6,2.6-0.8c0.7-0.2,1.4-0.4,2.1-0.5c0.5-0.5,1.4,0,1.9-0.5c0.7,0,1.5,0.1,2.2,0c0.2,0,0.5-0.1,0.7-0.2
	c0.9-0.1,1.9-0.1,2.8,0.1c0.3,0.3,0.8,0.4,1.2,0.3c1.1,0,2.1,0.3,3,0.9c0.5,0.3,1,0.6,1.4,0.8c0.3,0.2,0.6,0.3,0.7,0.6
	c0.2,0.4,0.5,0.8,0.8,1.2c0.7,1.1,1.3,2.3,1.7,3.5c0.4,1,0.6,2.1,0.6,3.2c0.5,0.6,0,1.4,0.3,2s0.1,1.5,0.2,2.2c0,0.2-0.1,0.6,0,0.7
	c0.4,0.6,0.2,1.2,0.2,1.8s-0.1,1.2-0.1,1.9c0.5,0.8,0.2,1.7,0.2,2.6c0,1-0.3,2.1,0.2,3.1c0,0.2,0,0.4-0.1,0.5
	c-0.2,0.3-0.3,0.7-0.3,1.1c0,0.9,0,1.9-0.1,2.8s0.4,1.8,0.2,2.8c0,0.1,0.1,0.2,0.2,0.2c0.1,0.1,0.1,0,0.2-0.1
	c0.3-0.4,0.6-0.8,0.9-1.1c1-0.9,2-1.9,3.1-2.8c1-0.7,2-1.2,3.1-1.5c0.6,0.1,1.1-0.3,1.6-0.3c0.6,0,1.1,0,1.7,0.1
	c1.2,0,2.3,0.5,3.2,1.2c0.2,0.2,0.5,0.1,0.6-0.2s0-0.4,0.1-0.5c0.6-1.3,1.2-2.7,1.6-4.1c0.6-1.3,1.1-2.7,1.5-4.1
	c0.4-0.5,0.6-1.2,0.7-1.9c0-0.8,0.6-1.4,0.6-2.1c0-0.4,0.3-0.7,0.4-1c0-0.7,0.1-1.3,0.4-2c0.2-0.6,0.3-1.3,0.3-2c0-0.2,0-0.4,0-0.5
	c0.4-0.7,0.5-1.4,0.4-2.2c0.1-1.7,0.2-3.4,0.3-5.1c0-0.4-0.1-0.9,0.1-1.1s0-0.7,0.1-1s0.2-0.6,0.2-0.9c0-0.4,0-0.7,0.1-1.1
	c0.1-1.1,0.1-2.1,0.2-3.2c0-0.3-0.1-0.7,0.1-0.9c0.4-0.6,0.3-1.2,0.4-1.8S96.3,92.9,96.3,92.1L96.3,92.1z M72.9,131.5
	c0.1-1.9,0.3-3.9,0.3-5.8c0-1.4,0.4-2.8-0.1-4.2c0-0.7,0.1-1.5,0.1-2.2s-0.5-1.6-0.2-2.4c0.2-0.8-0.5-1.3-0.3-2
	c0.3-1-0.4-1.9-0.2-2.9c-0.5-1.3-0.9-2.6-1.6-3.9c-0.4-0.8-1.1-1.5-1.5-2.3c-0.1-0.2-0.2-0.3-0.4-0.4c-1.1-0.7-2.3-1.2-3.5-1.5
	c-0.2,0-0.5-0.1-0.7-0.1c-1.2-0.6-2.4-0.3-3.7-0.4c-0.4,0.3-0.9,0.4-1.4,0.2c-0.7,0-1.5,0.1-2.2,0.3c-0.3,0-0.6,0.1-0.9,0.2
	c-1,0.3-2,0.6-3,0.9c-1.6,0.3-3,1.1-4.1,2.3c-0.4,0.3-0.9,0.5-1.2,0.9s-0.6,0.8-1,1.1c-0.4,0.4-0.8,0.9-1.1,1.5
	c-0.3,0.5-0.5,1.1-0.9,1.6c-0.4,0.7-0.8,1.5-1.1,2.3c-0.4,0.8-0.6,1.7-0.7,2.6c-0.6,0.8-0.3,1.7-0.5,2.5s-0.1,1.5-0.1,2.2
	c0,0.4-0.1,0.9-0.3,1.2c-0.1,0.2-0.1,0.5,0,0.7c0.2,0.5,0.3,1.1,0.2,1.6c0,0.7-0.1,1.5-0.1,2.2c-0.1,0.3,0,0.6,0.1,0.9
	c0.2,0.3-0.4,0.5-0.2,0.8c0.3,0.6,0.4,1.3,0.2,2c-0.1,0.5-0.1,1,0,1.5c0.2,0.5,0.2,1.1,0.2,1.6c0.2,0.5,0.3,1.1,0.3,1.6
	s0.1,1.1,0.2,1.6c0.1,0.6-0.2,1.3,0,1.9c0.2,0.6,0.2,1.2,0.2,1.8c0,0.1,0.2,0.4,0.3,0.4c0.5,0.1,1.1,0.1,1.6-0.1
	c0.2-0.1,0.5-0.1,0.7-0.1c1,0.2,1.8-0.4,2.7-0.3c0.6-0.5,1.4,0,2-0.3c0.7-0.2,1.5-0.3,2.2-0.1c0.6,0,1.2,0.1,1.9,0
	c0.6-0.5,1.3-0.2,2-0.2c1.8,0.1,3.6,0.2,5.4,0.3c0.3,0.1,0.6,0,0.9-0.1c0.5-0.2,1-0.3,1.5-0.2c2.1,0.1,4.3,0.2,6.4,0.3
	c0.8,0,1,0.2,1-0.8C72.5,137.3,72.7,134.4,72.9,131.5z M56.1,62.8L56.1,62.8c0-0.8,0.1-1.6,0.1-2.4c0.1-1.7,0.1-1.8-1.1-2.9
	c-0.2-0.2-0.4-0.3-0.6-0.5c-1-0.9-1.9-1.9-2.7-3.1c-0.7-1-1.3-2.2-2-3.3c-0.1-0.3-0.3-0.3-0.6-0.2c-0.3,0.2-0.7,0.3-1,0.5
	c-2,1.5-3.7,3.3-5.3,5.2c-0.4,0.4-0.8,0.9-1.2,1.4c-0.6,1.3-1.6,2.3-2.2,3.6c-1,1.8-1.7,3.8-2.6,5.7c-0.4,1.2-0.6,2.4-0.6,3.6
	c0.3,0.4,0.4,0.9,0.3,1.4c-0.1,0.7,0,1.5,0.3,2.2c0.5,2,1.4,3.8,2.7,5.3c0.9,0.8,1.9,1.6,3,2.2c1.2,0.8,2.5,1.5,3.8,2.2
	c0.2,0.1,0.3,0.3,0.5,0.3c1.3,0.1,2.3,1,3.5,1c0.4,0.5,1.1,0.2,1.6,0.4c0.6,0.2,1.2,0.4,1.8,0.5c0.7-0.1,1.4,0,2,0.4
	c0.2,0.1,0.4,0.1,0.5,0c0.7-0.4,1.5-0.2,2.2-0.2s1.6,0,2.4,0c0.8-0.6,1.8,0.1,2.5-0.5c0.7,0,1.4-0.1,1.9-0.5
	c0.6-0.2,1.3-0.4,1.9-0.7c0.5-0.3,1.1-0.6,1.6-0.8c1.9-0.8,3.5-2.1,4.7-3.8c0.6-1,1.1-2,1.5-3.1c0-2,0.5-4,0-5.9
	c-0.1-0.5-0.2-1-0.3-1.4c-0.2-0.8-0.7-1.6-0.9-2.4c0-0.2-0.1-0.5-0.3-0.7c-0.5-0.6-0.8-1.4-1.1-2.1c-0.6-1.3-1.3-2.6-2.1-3.9
	c-0.8-1.3-1.4-2.7-2.2-4c-1-1.8-2.2-3.5-3.6-4.9c-0.3-0.3-0.3-0.3-0.5,0s-0.4,0.7-0.6,1.1c-0.8,1.4-1.7,2.7-2.8,3.9
	c-0.8,1-1.7,2-2.7,2.9c-0.4,0.3-0.6,0.8-0.7,1.2c-0.2,1-0.1,2-0.2,3c0.5,0.9,0.2,1.8,0.2,2.7c-0.1,0.7-0.1,1.5,0,2.3
	c0.2,0.6,0.4,1.3,0.8,1.9c0,0.1,0.1,0.1,0.1,0.2c-0.1,1.1,0.8,1.7,1.4,2.3c0.4,0.4,1,0.7,1.7,0.7c1.8,0.1,1.3,0.3,2.7-0.9
	c0.4-0.4,0.8-0.8,1.2-1.2c0.1-0.1,0.3-0.2,0.5-0.3c0.1,0,0.2,0,0.3,0c0.2,0.3,0.3,0.5,0.4,0.8c0,0.1-0.1,0.3-0.2,0.4
	c-0.7,0.6-1.4,1.3-2.1,1.9c-0.2,0.2-0.5,0.4-0.8,0.4c-0.5,0-0.9,0.4-1.4,0.4c-0.7,0-1.3-0.5-2-0.5c-0.2,0-0.5-0.1-0.7-0.2
	c-0.6-0.2-1.1-0.7-1.4-1.2c-0.3-0.5-0.5-1-0.7-1.5c-0.1-0.1-0.2-0.2-0.3-0.1l-0.1,0.1c-0.1,0.2-0.2,0.4-0.3,0.6
	c-0.4,1.2-1.2,2.3-2.2,3.1c-0.4,0.3-0.9,0.6-1.4,0.9c-0.2,0.1-0.3,0.1-0.5,0.1c-0.5,0-1,0-1.5-0.1c-0.7-0.2-1.4-0.6-2-1
	c-0.7-1.1-1.2-2.3-1.4-3.5c0-0.1,0-0.2,0.1-0.4c0.3-0.3,0.7-0.5,1.1-0.3c0.4,0.1,0.3,0.5,0.3,0.8c0,0.1,0,0.2,0,0.4
	c-0.4,0.9,0.5,1.3,0.7,2s0.7,0.6,1.1,0.9c0.3,0.2,0.6,0.2,0.9,0.2c0.9-0.2,1.8-0.6,2.4-1.2c0.8-1,1.4-2.2,1.6-3.4
	c0.1-0.6,0-1.3,0.4-1.8c0.1-0.2,0.1-0.4,0-0.5c-0.2-0.4-0.4-0.8,0-1.2c-0.2-0.4-0.3-0.9-0.2-1.4C56,64.7,56,63.7,56.1,62.8z
	 M26.2,21L26.2,21c0-0.8,0.1-1.5,0.1-2.2c0.1-0.6,0.2-1.1,0.1-1.7c-0.2-1-0.3-2-0.2-2.9c0-0.1,0-0.3,0-0.4c-0.3-0.4-0.2-1-0.2-1.4
	c-0.1-0.5-0.2-1-0.3-1.4c0-0.2,0-0.4-0.1-0.5c-0.2-0.3-0.4,0.2-0.6,0.1c-0.6-0.1-1.1,0-1.6,0.3c-1.3,0.7-2.5,1.5-3.7,2.4
	c-2.7,2.4-5.3,4.8-8,7.2c-1,0.9-2,1.9-2.8,2.9c-1,1.1-2,2.2-2.8,3.5c-1.2,1.3-2.3,2.6-3.2,4c-1,1.2-1.6,2.7-1.7,4.3
	c0,1,0.1,2.1,0.4,3.1C1.9,39,2,39.8,2.1,40.6c0.1,0.9,0.3,1.8,0.6,2.7c0.1,0.5,0.5,0.9,0.4,1.4c0,0.2,0.1,0.5,0.2,0.7l2.3,5.4
	C6,51.5,6.5,52.3,7,52.9c0.3,0.4,0.7,0.6,1.1,0.3C8.6,53,9.3,53,9.8,52.6c0.5-0.3,1.1-0.7,1.6-1c1.6-1.3,3.1-2.7,4.4-4.3
	c1.1-0.8,1.6-2,2.4-3c0.8-1.2,1.5-2.5,2.1-3.9c0.5-0.8,0.9-1.6,1.2-2.5c0.2-0.8,0.8-1.4,1-2.2c0.1-0.6,0.6-1.2,0.8-1.8
	c0.2-0.6,0.6-1.3,0.8-2c0.2-0.7,0.3-1.3,0.6-2c0.3-0.6,0.4-1.1,0.5-1.8c0-0.7,0.6-1.2,0.5-2c-0.1-0.2,0-0.5,0.1-0.7
	C26,25,26.1,24.5,26,24C26.1,23,26.1,22,26.2,21L26.2,21z M122.9,38.7c0.2-0.5-0.3-0.9-0.4-1.5c-0.6-0.4-0.5-1.2-0.9-1.8
	c-0.3-0.6-0.6-1.2-0.9-1.8c-0.1-0.3-0.3-0.7-0.5-1c-0.9-1.2-1.9-2.4-2.9-3.7c-0.2-0.2-0.4-0.4-0.5-0.6c-0.4-0.7-0.9-1.4-1.4-1.9
	c-0.5-0.6-0.9-1.3-1.4-1.9s-1-0.9-1.2-1.5s-1-0.8-1.3-1.3c-0.8-1.2-2.2-1.8-3-3c-0.1-0.1-0.2-0.2-0.3-0.2c-1.3-0.9-2.6-1.9-4-2.6
	c-0.8-0.4-1.6-0.9-2.4-1.4c-0.4-0.2-0.8,0-1,0.4c0,0,0,0,0,0.1c0,0.2,0,0.4,0,0.6c-0.1,2.1-0.2,4.3-0.3,6.4c0,0.3-0.1,0.7,0,0.9
	c0.4,0.6,0.2,1.2,0.2,1.8c0,0.4-0.2,0.8,0,1.1c0.2,0.4,0.3,0.9,0.2,1.4c0,0.5,0.1,1.1,0.3,1.6c0.1,0.4,0,0.9-0.1,1.3
	c-0.1,0.6,0.4,0.9,0.3,1.4c-0.2,1,0.4,1.9,0.3,2.9c0,0.3,0.3,0.6,0.3,0.9c-0.1,0.6,0.4,1,0.3,1.6s0.5,1,0.3,1.6
	c0.5,0.6,0.2,1.4,0.6,2.1c0.4,0.9,0.7,1.8,1,2.7s0.6,1.9,1,2.7c0.3,2.1,1.8,3.7,2.4,5.7c0,0.1,0.1,0.2,0.2,0.3
	c0.6,0.6,1.1,1.3,1.5,2.1c0.1,0.2,0.2,0.3,0.4,0.4c0.2,0.1,0.3,0.1,0.5,0s0.4-0.3,0.6-0.5c1.5-1.3,2.8-2.6,4.2-4
	c1.2-1.2,2.3-2.5,3.4-3.9c0.7-0.9,1.4-1.8,2-2.8c0.7-1.2,1.4-2.5,2.1-3.7C122.7,39.6,122.9,39.1,122.9,38.7z M7.9,127.7
	c0,0.4,0,0.9,0.1,1.3c0.2,0.6,0.1,1.1,0.2,1.7c0,0.2,0.2,0.3,0.2,0.5c0.1,0.4,0.2,0.8,0.4,1.2c0.6,1.6,0.9,3.3,2,4.7
	c0.4,0.5,0.6,0.7,1.2,0.3c0.7-0.5,1.5-0.8,2.3-1.1c0.9,0.1,1.5-0.4,2.3-0.7c0.3-0.2,0.7-0.3,1-0.3c0.6,0.1,1-0.3,1.6-0.3
	c0.6-0.1,1.2-0.2,1.8-0.3c0.3-0.1,0.6-0.2,0.9-0.2c1.2,0.2,2.3-0.4,3.5-0.2c0.2,0,0.4-0.4,0.2-0.6c-0.4-0.5-0.6-1.1-0.7-1.7
	c-0.2-0.6-0.4-1.1-0.5-1.7c0-0.7-0.4-1.2-0.4-1.8c0-0.6-0.2-1.2-0.4-1.8c-0.3-0.6,0-1.2-0.2-1.8c-0.4-1.2-0.7-2.5-0.9-3.7
	c-0.2-0.4-0.2-0.8-0.2-1.2c0.1-0.2,0-0.5-0.1-0.7c-0.4-0.6,0-1.3-0.3-1.8c-0.2-0.6-0.3-1.2-0.2-1.8c0.1-0.2,0.1-0.5,0-0.7
	c-0.2-0.4-0.2-0.9-0.6-1.1c-0.4-0.1-0.7-0.1-1.1,0c-0.6,0.1-1.2,0.3-1.7,0.6c-1.6,0.8-3.4,1.2-4.6,2.6c0,0-0.1,0.1-0.2,0.1
	c-0.9,0.4-1.6,1-2.1,1.8c-0.7,0.7-1.3,1.5-1.7,2.4c-0.4,0.8-0.6,1.7-1,2.5c-0.2,0.5-0.2,1.1-0.3,1.6c0,0.2,0,0.5-0.1,0.7
	C7.8,126.5,8,127,7.9,127.7z M107.2,122.3L107.2,122.3c0-0.8,0.1-1.6,0.1-2.4c0-0.9-0.1-1.8-0.5-2.7c-0.5-1.4-1.3-2.7-2.2-3.8
	c-0.4-0.5-0.9-1-1.5-1.4c-0.6-0.6-1.3-1.1-2.1-1.4c-1-0.4-1.9-1.1-3.1-1c-0.1,0-0.2-0.2-0.3-0.2c-0.5-0.1-1-0.2-1.5-0.2
	c-0.1,0-0.3,0.2-0.3,0.3c0,0.7-0.9,1.3-0.2,2.1c-0.1,0.3-0.3,0.5-0.3,0.8c-0.1,0.6-0.1,1.1-0.1,1.7s-0.6,1-0.5,1.6
	c0,0.9-0.2,1.8-0.7,2.6c-0.1,0.3-0.2,0.6-0.3,0.9c-0.1,0.9-0.3,1.8-0.7,2.6c-0.3,0.8-0.7,1.7-1,2.5c-0.2,0.6-0.4,1.3-0.7,1.9
	c-0.3,0.5-0.5,1-0.6,1.5c-0.1,0.7-0.3,1.4-0.7,2.1c-0.3,0.6-0.1,1.3-0.6,1.7c0.1,0.1,0.2,0.2,0.2,0.2c0.2,0,0.5,0,0.7-0.1
	c0.8-0.2,1.5-0.4,2.3-0.7s1.6,0.1,2.3-0.5l5.4,0.3c0.3,0.3,0.8,0.4,1.2,0.4c0.9,0,1.8,0.3,2.6,0.7c0.6,0.2,0.6,0.3,0.9-0.3
	s0.3-1.3,0.6-1.9s0.1-1.4,0.7-1.9c0-0.6,0-1.1,0.2-1.7c0.3-0.6,0.4-1.2,0.4-1.8C107.2,123.7,107.2,123,107.2,122.3z M96.1,105.7
	L96.1,105.7c0,0.4,0,0.7-0.1,1.1c0,0.8,0,0.7,0.7,1.1c0.5,0.3,1.1,0.1,1.6,0.5c0.1,0.1,0.3,0.2,0.5,0.1c0.9,0.1,1.7,0.4,2.4,0.8
	c0.2,0.1,0.5,0.2,0.7,0c0.4-0.2,0.7-0.4,1.1-0.7c0.5-0.4,1-0.8,1.4-1.3s1.2-0.6,1.5-1.3c0.4-0.5,0.8-0.9,1.3-1.3
	c0.3-0.2,0.6-0.5,0.8-0.8c0.7-1,1.4-1.9,2.1-2.8c0.8-1,1.5-1.9,2.2-2.9s1.3-2.1,2.2-3c0.1-0.6,0.4-1.2,0.7-1.7
	c0.9-1.6,1.8-3.2,2.5-4.9c0.3-0.5,0.5-1,0.6-1.5c0-0.6,0.4-1,0.5-1.6s0-1.1,0.4-1.6c0-0.6,0.1-1.2,0-1.9l-0.3-0.1
	c0,0-0.3,0.4-0.4,0.5c-1.6,1.5-2.7,3.3-4.2,5c-0.8,1-1.6,1.8-2.4,2.8s-1.8,1.9-2.8,2.8c-0.7,0.6-1.4,1.2-2,1.9
	c-0.7,1-1.5,1.8-2.5,2.5s-1.9,1.6-2.9,2.3c-0.5,0.4-0.9,1-1.6,1.2c-0.3,0.7-1,0.8-1.5,1.3s-1.1,0.8-1.7,1.1c-0.6,0.1-1,0.8-0.9,1.4
	C96.1,105.2,96.1,105.4,96.1,105.7L96.1,105.7z M91.5,141.7c0.9,0.1,1.9,0,2.8-0.2s1.8,0,2.7-0.2c0.6-0.2,1.2-0.1,1.8-0.3
	c0.7-0.1,1.4-0.1,2.1,0c0.4,0,0.7,0,1.1-0.2c0.4-0.1,0.9-0.1,1.3-0.1c0.5-0.1,0.9-0.4,1.4-0.3c0.9,0.2,1.7-0.4,2.5-0.3
	c0.3,0,0.6-0.1,0.8-0.4c0.3-0.3-0.1-0.5-0.2-0.8c0-0.5-0.1-1-0.3-1.4c-0.4-1.2-1.1-2.4-2.1-3.2c-0.7-0.6-1.4-1.1-2.3-1.5
	c-0.4-0.2-0.8-0.3-1.2-0.4c-0.6,0-1.2,0-1.8-0.2c-0.4-0.2-0.9-0.3-1.4-0.3c-1.3,0-2.6-0.4-3.9,0.1c-1.6-0.1-2.9,0.8-4.5,1
	c-0.3,0-0.6,0.4-0.9,0.7s0.2,0.5,0.1,0.8c0,0.7-0.1,1.5-0.1,2.2c-0.1,1,0.2,2-0.5,2.9c0,0.6-0.3,1.2,0.1,1.8l1.5,0.2
	C90.8,141.7,91.1,141.7,91.5,141.7L91.5,141.7z M26.8,141.4c0,0.3,0.1,0.5,0.4,0.6c0.2,0.1,0.5,0.2,0.7,0.2l6.8,0.3
	c0.2,0,0.4,0,0.5,0c0.6-0.4,1.2-0.2,1.8-0.2c0.7,0,1.4,0,2.1,0.1c0.8,0.1,1.6,0,2.4-0.3c0.5,0,0.8-0.4,0.8-0.9c0-0.1,0-0.2-0.1-0.3
	c-0.1-0.3-0.2-0.7-0.3-1.1c0-0.4-0.2-0.8-0.3-1.2c-0.2-1.9-1-3.7-2.4-5.1c-0.1-0.1-0.2-0.2-0.3-0.3c-0.6-0.6-1.3-1.1-2.1-1.4
	c-0.7-0.3-1.6,0-2.3-0.4c-0.4,0.3-0.8,0.1-1.3,0.2c-0.3,0.1-0.6,0.2-0.9,0.3c-0.6,0.3-1.2,0.6-1.8,0.8c-0.8,0.3-1.5,0.9-2.1,1.6
	c-0.4,0.7-0.8,1.4-1.1,2.1c-0.3,0.8,0.1,1.7-0.5,2.5c0,0.1,0.2,0.3,0.2,0.5C27.3,140.1,27.2,140.8,26.8,141.4L26.8,141.4z
	 M78.4,141.7L78.4,141.7l2.4,0.1c0.6-0.4,1.2-0.2,1.8-0.2c0.4,0,0.7,0,1.1,0.1c0.5,0,1.1,0.2,1.6-0.2c0.1-0.1,0.4-0.1,0.5-0.1h1.7
	c0.4-0.4,0.2-1.1,0.4-1.6c0.1-0.2,0.3-0.4,0.3-0.7c0-0.7,0-1.5,0.2-2.2s-0.6-1.4,0-2.1c-0.4-0.5-0.1-1.2-0.7-1.7
	c-0.2-0.1-0.1-0.3,0-0.4c0.1-0.2,0.1-0.3,0.1-0.5c-0.2-0.3-0.3-0.5-0.6-0.7c-0.3-0.3-0.7-0.8-1.1-1c-0.6-0.3-1.3-0.5-2-0.5
	c-1.4,0.1-2.8,0.5-4.1,1.1c-0.7,0.4-1.4,0.8-2,1.4c-0.9,0.7-1.6,1.5-2.2,2.5c-0.6,0.9-1.1,1.9-1.6,2.9c-0.3,0.8-0.4,1.7-0.4,2.6
	c0,0.2,0.3,0.6,0.6,0.7c0.4,0.1,0.7,0.1,1.1,0.1c0.3,0.1,0.7,0.3,1,0.4C77.2,141.7,77.8,141.7,78.4,141.7L78.4,141.7z M11.2,143.9
	c0.9-0.1,1.5,0.2,2.1-0.2c0.3-0.2,0.7,0,1.1-0.1c0.4-0.1,0.8-0.2,1.2-0.3c0.4,0,0.9,0,1.3,0.1c0.4,0,0.9,0.1,1.3-0.2
	c0.4,0.4,0.8-0.1,1.2,0c0.4,0,1,0.1,1.5,0.1c0.4,0,0.9,0,1.3,0.1c0.5,0.1,0.9-0.3,1.4-0.3s1,0,1.5,0c0.3-0.5,0.2-1.1,0.2-1.6
	c0.1-0.5,0.1-1.1,0.1-1.7c-0.1-0.6,0-1.3,0.2-1.9c0.1-0.6,0.4-1.2,0.7-1.7c0.1-0.2,0.1-0.5,0-0.7c-0.1-0.3-0.4-0.2-0.6,0
	s-0.7,0.1-1.1,0.1l-2.1-0.1c-0.4,0.4-1,0.3-1.6,0.5s-1.1,0-1.6,0.2c-0.4,0.1-0.8,0.2-1.3,0.2c-0.3,0-0.6,0.1-0.9,0.2
	c-0.3,0.2-0.7,0.4-1,0.4c-0.6,0-1.1,0.2-1.5,0.6c-0.5,0.5-1.2,0.3-1.7,0.7s-1.1,0.4-1.2,1c-0.5,0.3-0.9,0.6-1.4,0.9
	c-0.7,0.7-1.3,1.5-1.7,2.4c0,0,0,0.1,0,0.2c-0.1,0.2,0.1,0.6,0.3,0.6C9.8,143.4,10.5,144.1,11.2,143.9L11.2,143.9z M58.3,47.5
	L58.3,47.5l-1.9-0.2c-0.1,0-0.1,0-0.2,0.1c0,0,0,0.1,0.1,0.2c0.2,0.4,0.7,0.6,1.1,0.5c0.3-0.1,0.5-0.2,0.8-0.4
	C58.2,47.6,58.3,47.5,58.3,47.5L58.3,47.5z"/>
<path class="st0" d="M80.9,42.1c-0.1,0.5-0.1,1-0.1,1.5c0,1.2-0.4,2.5-1,3.5c-0.1,0.4-0.3,0.8-0.5,1.2c-0.4,0.6-1,1-1.3,1.6
	c-0.4,0.5-1,0.8-1.6,0.7c-0.1,0-0.2,0-0.4,0c-1.2,0.1-2.3-0.7-2.7-1.8c-0.4-0.7-0.6-1.5-0.6-2.3c0-0.2,0-0.4-0.1-0.5
	c-0.1-0.2-0.2-0.5-0.2-0.7c0-0.3,0.3-0.5,0.2-0.8c0-0.3-0.2-0.4-0.1-0.7s0.2-0.3,0.3-0.5c0-0.6,0.1-1.1,0.1-1.7s0.6-1,0.5-1.6
	c0-0.7,0.3-1.4,0.8-1.8c0.5-0.4,0.9-0.8,1.4-1.3c0.3-0.3,0.6-0.4,1-0.3c0.1,0,0.3,0,0.4,0c0.5-0.3,1.1-0.4,1.6-0.2
	c0.5,0.7,1.5,0.7,1.7,1.6c0.1,0.2,0.2,0.3,0.3,0.5c0.3,0.3,0.4,0.8,0.3,1.2C81,40.4,80.9,41.3,80.9,42.1z"/>
<path class="st0" d="M41.2,48.7c-0.9,0-1.8-0.6-2.1-1.5c-0.3-0.5-0.4-1-0.6-1.5c-0.2-0.9-0.3-1.8-0.3-2.7c0-0.6,0.6-1.1,0.5-1.8
	c-0.1-0.6,0-1.1,0.4-1.6c-0.1-0.7,0.3-1.2,0.5-1.8s0.6-1.2,1.1-1.7c0.4-0.5,1-0.7,1.7-0.6c0.3,0.1,0.6-0.1,0.9-0.2
	c0.5-0.1,1-0.1,1.5,0c0.1,0,0.2,0.1,0.3,0.2c0.7,0.9,1.1,1.9,1.3,3c0,0.6,0.1,1.3,0.3,1.9c0.1,0.2,0.1,0.5,0,0.7
	c-0.3,0.7-0.5,1.4-0.4,2.2c-0.1,0.7-0.3,1.3-0.6,2c0,0.5-0.6,1-0.9,1.4c-0.3,0.5-0.7,0.9-1.1,1.3C43,48.5,42.1,48.8,41.2,48.7z"/>
<path class="st0" d="M76,22.6c-0.5,0.1-1.3-0.3-2,0.2c-0.6,0-1.1-0.1-1.7-0.1c-0.1,0-0.3-0.2-0.4-0.3c-0.1-0.1-0.3-0.3,0-0.4
	c0.2-0.1,0.7-0.4,1.1-0.6c0.9-0.1,1.8-0.1,2.6,0c1,0.1,2,0.2,3,0.2c1,0.2,1.9,0.4,2.8,0.8c0.9,0.3,1.7,0.8,2.3,1.5
	c0.5,0.5,1,0.9,1.5,1.3c0.3,0.4,0.3,1.1-0.2,1.4c-0.1,0.1-0.1,0.1-0.2,0.1s-0.2,0-0.3,0c-0.4-0.4-0.9-0.9-1.3-1.4
	c-1.1-1.2-2.6-2-4.3-2.2c-0.5,0-0.9-0.5-1.4-0.5C77,22.7,76.7,22.6,76,22.6z"/>
<path class="st0" d="M47.6,20.4c0.2,0.2,0.3,0.5,0.2,0.8c-0.2,0.4-0.3,0.7-0.9,0.7c-2,0-3.9,0.6-5.6,1.6c-1.5,0.9-2.8,2.1-3.9,3.4
	c-0.5,0.5-1.1,1.1-1.6,1.5c-0.3,0.1-0.6,0.1-0.9-0.1c-0.1-0.3-0.1-0.6,0-0.9l0.1-0.1c0.8-0.7,1.5-1.5,2.2-2.3c0.9-1.1,2.1-2,3.3-2.6
	c1.1-0.7,2.3-1.2,3.5-1.5c0.4-0.4,0.8-0.2,1.3-0.2c0.6,0,1.2,0.2,1.8-0.2C47.3,20.4,47.4,20.4,47.6,20.4z"/>
</svg>
